<svg xmlns="http://www.w3.org/2000/svg" width="36.837" height="36.996" viewBox="0 0 36.837 36.996"><defs><style>.a{fill:#fff;stroke:#fff;}</style></defs><g transform="translate(-0.515 0.5)"><path class="a" d="M108.6,74.305h1.845v1.856h-3.1a.7.7,0,0,0,0,1.406h3.1v1.856H108.6a.7.7,0,1,0,0,1.406h1.845v.658a.7.7,0,0,0,.7.7h.656v1.843a.7.7,0,0,0,1.406,0V82.19h1.856v3.1a.7.7,0,0,0,1.406,0v-3.1h1.856v1.843a.7.7,0,1,0,1.406,0V82.19h.656a.7.7,0,0,0,.7-.7v-.658h1.845a.7.7,0,0,0,0-1.406H121.1V77.567h3.1a.7.7,0,0,0,0-1.406h-3.1V74.305h1.845a.7.7,0,1,0,0-1.406H121.1v-.656a.7.7,0,0,0-.7-.7h-.656V69.7a.7.7,0,1,0-1.406,0V71.54h-1.856v-3.1a.7.7,0,1,0-1.406,0v3.1h-1.856V69.7a.7.7,0,1,0-1.406,0V71.54h-.656a.7.7,0,0,0-.7.7V72.9H108.6a.7.7,0,1,0,0,1.406Zm3.251-1.359h7.836v7.837h-7.836Z" transform="translate(-98.219 -62.974)"/><path class="a" d="M34.61,14.011a2.24,2.24,0,1,0-2.126-2.942H30.47a13.426,13.426,0,0,0-1.63-3.528h5.77a.7.7,0,0,0,.7-.665.372.372,0,0,0,0-.038V4.367a2.24,2.24,0,1,0-1.406,0V6.135h-6.12q-.192-.225-.393-.443A13.569,13.569,0,0,0,10.953,3.021a.7.7,0,0,0,.676,1.233A12.164,12.164,0,0,1,29.612,15.368c0,.009,0,.018,0,.027a12.155,12.155,0,0,1-3.039,8.07.7.7,0,0,0-.175.465V34.59H22.823v-5.9a2.241,2.241,0,1,0-1.406,0v5.9H15.777V31.5a2.24,2.24,0,1,0-1.406,0V34.59H11.392l-.673-2.843a1.762,1.762,0,0,0-1.908-1.506H6.75a.939.939,0,0,1-.868-.929l-.7-7.729a.7.7,0,0,0-.7-.639H2.519l.048-.111,2.688-6.1a.7.7,0,0,0,.059-.257A12.145,12.145,0,0,1,7.275,8.284.7.7,0,0,0,6.1,7.515a13.55,13.55,0,0,0-2.183,6.768L1.279,20.267a1.635,1.635,0,0,0-.12,1.57,1.438,1.438,0,0,0,1.255.512H3.835l.646,7.089A2.338,2.338,0,0,0,6.75,31.647H8.811c.425,0,.457.074.539.423l.7,2.974a1.142,1.142,0,0,0,1.1.952H26.687A1.116,1.116,0,0,0,27.8,34.882V24.191a13.562,13.562,0,0,0,3.068-6.783h3.036v1.766a2.241,2.241,0,1,0,1.406,0V16.705a.482.482,0,0,0,0-.051.7.7,0,0,0-.7-.652H31.005q.013-.3.012-.6a13.69,13.69,0,0,0-.212-2.93h1.679a2.243,2.243,0,0,0,2.126,1.536Zm0-3.074a.834.834,0,1,1-.833.835A.836.836,0,0,1,34.61,10.936Zm-.833-8.7a.834.834,0,1,1,.833.835A.834.834,0,0,1,33.777,2.239Zm-18.7,27.972a.834.834,0,1,1,.835-.833A.834.834,0,0,1,15.074,30.211Zm7.045-2.817a.834.834,0,1,1,.833-.833A.835.835,0,0,1,22.12,27.394ZM34.61,20.467a.835.835,0,1,1-.833.835A.836.836,0,0,1,34.61,20.467Z" transform="translate(0 0)"/><path class="a" d="M101.413,69.618a.7.7,0,0,0,.5-.206l0,0a.7.7,0,1,0-.5.208Z" transform="translate(-92.704 -63.416)"/></g></svg>