<?xml version="1.0" encoding="UTF-8"?>
<svg data-name="—ÎÓÈ_2" viewBox="0 0 3076.4 881.97" xmlns="http://www.w3.org/2000/svg">
<defs>
<style>.cls-1{fill:#ff5969;}.cls-2{fill:#ffb962;}</style>
</defs>
<path d="m1219.9 506.48h-281.27c12.82 45.58 51.27 74.77 104 74.77 44.15 0 80.47-20.65 99.69-44.86l62 54.12c-37.74 44.86-96.13 72.63-164.49 72.63-115.35 0-201.51-82.6-201.51-191.55 0-107.52 83.31-188.7 193-188.7 109 0 190.83 81.18 190.83 190.84a253.75 253.75 0 0 1-2.25 32.75zm-281.94-67.65h185.1c-11.4-45.57-47.71-74.76-92.57-74.76-45.53 0-81.18 29.93-92.53 74.76z"/>
<path d="M1654.27,291.44V654.59H1561.7V611.16c-29.19,32-69.78,52-118.2,52-101.11,0-177.31-81.89-177.31-190.12s76.2-190.13,177.31-190.13c48.42,0,89,19.94,118.2,52V291.44ZM1561.7,473c0-57-42.72-100.41-100.4-100.41-57,0-99.69,43.44-99.69,100.41s42.73,100.4,99.69,100.4C1519,573.42,1561.7,530,1561.7,473Z"/>
<path d="M1950.65,285.74v95.42H1935c-66.22,0-104.67,39.16-104.67,101.11V654.59h-92.57V291.44h92.57v47c26.34-33.47,62-52.7,104.67-52.7Z"/>
<path d="m2354.4 423.88v230.71h-92.57v-200.8c0-49.13-31.33-81.18-79.76-81.18-50.55 0-84.73 32.76-84.73 82.6v199.38h-92.57v-363.15h92.57v40.56c28.48-32 68.36-49.14 115.35-49.14 85.45 0.03 141.71 55.58 141.71 141.02z"/>
<path d="m2796.6 506.48h-281.27c12.81 45.58 51.26 74.77 104 74.77 44.14 0 80.46-20.65 99.69-44.86l62 54.12c-37.74 44.86-96.13 72.63-164.49 72.63-115.36 0-201.52-82.6-201.52-191.55 0-107.52 83.31-188.7 193-188.7 108.95 0 190.84 81.18 190.84 190.84a253.75 253.75 0 0 1-2.25 32.75zm-282-67.65h185.15c-11.39-45.57-47.71-74.76-92.57-74.76-45.57 0-81.13 29.93-92.57 74.76z"/>
<path d="M3076.36,285.74v95.42h-15.67c-66.22,0-104.67,39.16-104.67,101.11V654.59h-92.57V291.44H2956v47c26.35-33.47,61.95-52.7,104.67-52.7Z"/>
<path class="cls-1" d="m603.77 796.54a1.89 1.89 0 0 0-0.09-0.21 142.92 142.92 0 0 0 1.61-31.11c-4.78-85.38-77.24-202.13-184.51-297.41-155.54-139.22-329.6-190.2-396.45-116.07-65.33 73.98 5.17 240.88 160.67 380.09 45.75 40 94 74.36 139.4 99.23l55.38 26c41.58 16.65 79.47 24.94 111.88 24.94 38.06 0 68.54-11.41 88.44-34.07 11.14-12.37 18.66-27.79 22.49-45.5 1.41-2.51 1.88-4.53 1.18-5.89z"/>
<path class="cls-2" d="M821.64,24.72C771.16-29.52,644.93,8.29,534.17,110.86c-76.29,70.52-127.1,155.91-129.47,217.5-.93,24.58,5.82,45.4,19.36,60,15.21,16.92,38,25.51,66.29,25.51,16.92,0,35.81-3.08,56.27-9.27a18.39,18.39,0,0,0,3.84-1.68l58.38-25.58a17.8,17.8,0,0,0,3.62-1.59c34.61-19.58,68-44.26,99.21-73.22C824.38,199.43,871.72,80.06,821.64,24.72Z"/>
</svg>
