<svg xmlns="http://www.w3.org/2000/svg" width="531.488" height="388.066" viewBox="0 0 531.488 388.066"><defs><style>.a{fill:#fff;}.b{fill:#fff3e6;}.c{fill:#c73866;}.d{fill:#ffb27d;}.e{fill:#f9ddbf;}.f{fill:#f2ccaa;}.g{fill:#e8945b;}.h{fill:#ebf3fa;}.i{fill:#ed7d2b;}.j{fill:#f99746;}.k{fill:#233862;}.l{fill:#b5453c;}.m{fill:#fe676e;}.n{fill:#ff949c;}.o{fill:#ad437b;}.p{fill:#a04985;}.q{fill:#fd8f52;}.r{fill:#ed975d;}.s{fill:#ebf3ff;}.t{fill:#2e3552;}</style></defs><g transform="translate(-60.513 -30.878)"><path class="a" d="M1090.209,683.394s-98.59-119.081-35.7-218.352c49.025-77.385,71.416-7.748,98.809-88.934s433.007-130.1,325.013,68.875c-56.659,104.39,132.906,88.791,55.627,238.41Z" transform="translate(-960.763 -266.55)"/><g transform="translate(200.185 82.303)"><path class="b" d="M1784.337,661.486l5.231-12.254.123-.293a3.177,3.177,0,0,0-1.364-4.006l-9.7-5.452a3.223,3.223,0,0,1-.447-.3,3.124,3.124,0,0,1-1.027-3.276,55.506,55.506,0,0,0,1.7-21.881,3.429,3.429,0,0,1,.022-.893,3.229,3.229,0,0,1,2.008-2.454l8.691-3.269a3.232,3.232,0,0,0,2.036-2.665,3.51,3.51,0,0,0-.084-1.114l-3.4-13.174a3.246,3.246,0,0,0-3.69-2.381l-12.179,2.067a3.137,3.137,0,0,1-3.1-1.308c-1.022-1.43-2.091-2.82-3.253-4.171a55.344,55.344,0,0,0-7.032-6.85l-.01-.012a3.2,3.2,0,0,1-1.033-3.5l3.919-11.917.191-.6a3.128,3.128,0,0,0-1.743-3.867l-12.524-5.352a3.273,3.273,0,0,0-4.121,1.4l-6.071,10.792a3.163,3.163,0,0,1-3.373,1.568,55.7,55.7,0,0,0-17.164-.491,3.183,3.183,0,0,1-3.357-2.043l-3.9-10.293a3.241,3.241,0,0,0-3.854-1.991l-13.23,3.407a3.1,3.1,0,0,0-2.279,3.519l2.409,14.318a3.251,3.251,0,0,1-1.291,3.168q-1.846,1.337-3.6,2.848a56.4,56.4,0,0,0-6.061,6.063,3.082,3.082,0,0,1-3.36.954l-14.316-4.727a3.19,3.19,0,0,0-3.925,1.773l-5.377,12.567a3.205,3.205,0,0,0,.98,3.754,2.313,2.313,0,0,0,.384.253l11.972,6.742a3.151,3.151,0,0,1,1.623,3.1,1.654,1.654,0,0,1-.047.332,9.733,9.733,0,0,0-.175.982,55.411,55.411,0,0,0-.948,11.817,3.077,3.077,0,0,1-2.038,3l-10.869,4.123a3.235,3.235,0,0,0-1.979,3.843l.752,2.931,2.65,10.221a3.193,3.193,0,0,0,3.625,2.354l12-2.035a3.08,3.08,0,0,1,3.2,1.516,56.062,56.062,0,0,0,6.035,8.5,55.255,55.255,0,0,0,5.5,5.548l-.826,2.5-3.369,10.258a3.083,3.083,0,0,0,1.038,3.433,2.8,2.8,0,0,0,.707.411l12.6,5.414a3.213,3.213,0,0,0,4.018-1.374l4.136-7.382a3.181,3.181,0,0,1,3.57-1.509A55.853,55.853,0,0,0,1726.831,676a3.081,3.081,0,0,1,3.1,2.012l4.923,13.009a3.068,3.068,0,0,0,3.628,1.873l13.369-3.464a3.1,3.1,0,0,0,2.3-3.539l-2.51-14.9a3.16,3.16,0,0,1,1.475-3.244,53.773,53.773,0,0,0,6.868-5.051q1.776-1.527,3.393-3.166a3.2,3.2,0,0,1,3.247-.795l13.728,4.526A3.233,3.233,0,0,0,1784.337,661.486ZM1748.651,604c6.183,9.068,6.94,19.326,3.538,27.2-11.969,27.57-49.091,25.1-57.5-3.313-2.062-7.3-1.187-15.441,4.08-23.368A29.941,29.941,0,0,1,1748.651,604Z" transform="translate(-1653.595 -551.398)"/></g><g transform="translate(323.636 170.891)"><path class="c" d="M2230.836,859.356a10.53,10.53,0,0,0-8.325-.891c-14.141-1.661-18.267,14.831-18.075,20.506s.839,11.769-5.476,19.141c-18.242,21.295,19.963,22.234,19.963,22.234.323-17.014,20.718-10.806,19.824-9.082C2264.891,917.539,2241.347,864.809,2230.836,859.356Z" transform="translate(-2161.327 -857.998)"/><path class="d" d="M2095.817,1097.116s-2.487-3.786-4.491-3.861-5.716-1.113-5.419-.371,2.6.817,2.821,1.262-3.415,1.114-4.454,1.188-3.489,0-3.415.519,4.416,2.673,7.478,2.376a20.771,20.771,0,0,1,6.849.891Z" transform="translate(-2080.857 -1024.828)"/><path class="e" d="M2164.882,1038.024a37.271,37.271,0,0,1-3.8,5.752c-2.955,3.7-7.511,7.977-13.232,8.821a14.2,14.2,0,0,1-7.861-1.276l-.009,0c-6.948-3.084-12.172-10.177-12.172-10.177a5.711,5.711,0,0,1,.779-5.605s14.03,3.156,15.366,2.488,9.131-23.123,10.986-25.944,8.182-4.287,8.182-4.287Z" transform="translate(-2113.957 -964.512)"/><path class="f" d="M2192.033,1114.033c-2.955,3.7-7.511,7.977-13.232,8.821a14.2,14.2,0,0,1-7.862-1.276c.271.036,7.211.893,9.977-4.055,2.821-5.049,5.872-13.065,10.064-10.393C2192.788,1108.283,2192.708,1111.149,2192.033,1114.033Z" transform="translate(-2144.911 -1034.768)"/><path class="c" d="M2400.1,1632.02s4.281,3.907,3.446,6.683-4.7,4.627-5.221,8.02-2.61,5.243-4.49,5.243h-8.961s-1.384-2.387,1.958-3.107,4.6-4.707,4.392-8.408a65.285,65.285,0,0,1,.313-8.637l7.1-1.645Z" transform="translate(-2296.83 -1407.061)"/><path class="c" d="M2252.83,1642.315s1.541,16.551-.339,17.476l-24.053-.049s0-2.776,3.863-3.393,10.65-2.879,11.8-7.917S2252.83,1642.315,2252.83,1642.315Z" transform="translate(-2185.797 -1415.697)"/><path class="d" d="M2272.58,1034.292c-4.95-11.1-7.979-14.287-7.4-17.732.43-2.564-1.311-47.811-1.311-47.811-.587-.182-1.764-.345-2.408-.488a6.039,6.039,0,0,1-4.41-3.836,30.775,30.775,0,0,1-1.5-10.209l-.634.125-10.661,2.111s.243,3.355.25,6.516v.079a6.132,6.132,0,0,1-4.425,5.929c-1.346.389-2.518.721-2.518.721a97.752,97.752,0,0,0-4.663,22.658c-.748,11.482,7.119,16.47-.059,39.414C2225.516,1055.2,2275.314,1040.426,2272.58,1034.292Z" transform="translate(-2188.406 -926.416)"/><path class="g" d="M2274.166,956.76s.243,3.355.25,6.516c5.966-.168,9.119-5.61,10.411-8.627Z" transform="translate(-2218.312 -926.723)"/><path class="d" d="M2255.7,913.7s14.115.233,14.125-8.559,1.838-14.684-7.174-15.2-10.766,2.833-11.483,5.766S2252.031,913.413,2255.7,913.7Z" transform="translate(-2201.84 -880.67)"/><path class="c" d="M2269.079,884.925s3.865,10.315,9.8,11.84,8.5-.064,8.5-.064a16.8,16.8,0,0,1-5.494-9.923S2271.994,880.016,2269.079,884.925Z" transform="translate(-2214.695 -875.874)"/><path class="c" d="M2254.806,888.083a8.758,8.758,0,0,0-4.045,3.161,14.212,14.212,0,0,0-1.908,8.072s-2.912-7.011.361-10.977C2252.683,884.133,2254.806,888.083,2254.806,888.083Z" transform="translate(-2199.464 -878.194)"/><path class="h" d="M2265.355,952.223a3.547,3.547,0,0,1-2.922,1.189,2.6,2.6,0,0,1-2.175-1.436A9.481,9.481,0,0,1,2265.355,952.223Z" transform="translate(-2208.423 -924.647)"/><path class="e" d="M2269.95,1024.525a95.746,95.746,0,0,1,0,11.118c-.239,4.02-4.3,9.4-4.881,10.736-1.448,3.34-3.08,3.884-3.08,3.884l-12.629,3.1-4.44,1.087-14-4.182s-6.378-17.8-3.817-27.824a77.011,77.011,0,0,1,6.474-16.981s11.427,11.189,26.3-.949Z" transform="translate(-2184.413 -962.176)"/><path class="f" d="M2309.03,1107.933c-.238,4.02-.608,7.764-1.185,9.095-1.448,3.34-3.08,3.884-3.08,3.884l-12.629,3.1-5.485-1.613s18.311-2.775,16.281-18.528Z" transform="translate(-2227.19 -1032.826)"/><path class="i" d="M2226.7,1172.213s-6.935,21.585-7.38,28.934,13.256,104.4,13.808,107.786c.519,3.192,4.483,5.227,4.483,5.227a6,6,0,0,0,4.425.34c3.61-1.019,4.75-2.24,4.75-2.24s5.4-69.216,2.058-93.941a391.626,391.626,0,0,1-3.38-46.107Z" transform="translate(-2179.302 -1081.425)"/><path class="j" d="M2279.884,1169.985s10.578,14.193,11.565,23.788,1.547,43.3,3.648,52.65,9.821,27.353,9.821,56.527a5.82,5.82,0,0,1-3.28,2.563,27.134,27.134,0,0,1-2.884.8,4.535,4.535,0,0,1-5.072-2.407c-5.219-10.507-21.843-44.4-22.7-51.432-.6-4.979-5.852-37.927-17.3-57.261-2.749-4.641,1.687-23.1,1.687-23.1Z" transform="translate(-2203.109 -1079.84)"/><path class="a" d="M2264.7,952.62s-.244,1.036-2.822.876c0,0-2.164-.134-2.1-1.272A6.963,6.963,0,0,1,2264.7,952.62Z" transform="translate(-2208.085 -924.809)"/><path class="k" d="M2240.082,1160.68s2.784,2.2,8.314,2.314c6.606.133,22.975-1.685,22.975-1.685a13.538,13.538,0,0,1,.7,4.178s-19.992,5.043-31.575.736A7.322,7.322,0,0,1,2240.082,1160.68Z" transform="translate(-2193.796 -1073.224)"/><g transform="translate(50.001 88.639)"><path class="a" d="M2256.922,1171.6a3.438,3.438,0,1,1,3.014-3.412A3.235,3.235,0,0,1,2256.922,1171.6Zm0-5.824a2.452,2.452,0,1,0,2.015,2.413A2.243,2.243,0,0,0,2256.922,1165.773Z" transform="translate(-2253.908 -1164.774)"/></g><rect class="l" width="27.159" height="37.177" transform="matrix(0.754, -0.657, 0.657, 0.754, 54.201, 81.159)"/><path class="d" d="M2314.942,1174.42s-7.5.877-7.481,2.659,1.87,5.441,2.8,5.6,6.108-4.949,6.108-4.949Z" transform="translate(-2241.987 -1082.994)"/><path class="e" d="M2330.849,1004.509s10.019.7,13.86,10.039,11.128,25.013,11.128,27.65-4.071,10.767-25.932,15.441c0,0-2.261-2.379-2.124-4.26,0,0,13.646-11.721,13.61-13.091-.07-2.591-2.237-6.012-14.218-18C2323.915,1019.032,2330.849,1004.509,2330.849,1004.509Z" transform="translate(-2255.384 -962.176)"/></g><g transform="translate(437.541 155.383)"><path class="m" d="M2516.616,806.265l5.976,20.884a2.69,2.69,0,0,1-1.845,3.324l-36.27,10.378a2.687,2.687,0,0,1-3.32-1.845l-5.973-20.875a2.686,2.686,0,0,1,1.842-3.323l36.269-10.378A2.688,2.688,0,0,1,2516.616,806.265Z" transform="translate(-2475.08 -804.324)"/><g transform="translate(0)"><path class="n" d="M2538.618,874.018a2.686,2.686,0,0,1-1.941,2.4l-36.27,10.378a2.686,2.686,0,0,1-2.925-1.025l18.473-16.83Z" transform="translate(-2491.009 -850.273)"/><path class="o" d="M2516.616,806.265l-16.237,20.163-24.889-7.23-.306-1.068a2.686,2.686,0,0,1,1.842-3.323l36.269-10.378A2.688,2.688,0,0,1,2516.616,806.265Z" transform="translate(-2475.08 -804.324)"/></g></g><g transform="translate(160.014 273.927)"><g transform="translate(30.268 68.3)"><path class="n" d="M1620.514,1523.979h-.1a1.086,1.086,0,0,1-1.085-1.11l1.646-71.32,4.847-.566-4.133,71.89A1.173,1.173,0,0,1,1620.514,1523.979Z" transform="translate(-1619.325 -1450.983)"/></g><g transform="translate(2.023 68.3)"><path class="c" d="M1522.757,1523.979h-.1a1.085,1.085,0,0,1-1.085-1.11l1.646-71.32,4.847-.566-4.134,71.89A1.172,1.172,0,0,1,1522.757,1523.979Z" transform="translate(-1521.568 -1450.983)"/></g><g transform="translate(75.85 68.3)"><path class="n" d="M1782.384,1523.979h.1a1.085,1.085,0,0,0,1.085-1.11l-1.646-71.32-4.847-.566,4.133,71.89A1.173,1.173,0,0,0,1782.384,1523.979Z" transform="translate(-1777.08 -1450.983)"/></g><path class="n" d="M1514.567,1279.042v-48.872a15.571,15.571,0,0,1,15.571-15.571h35.21a15.571,15.571,0,0,1,15.57,15.571v50.739Z" transform="translate(-1514.567 -1214.6)"/><path class="c" d="M0,0H72.66a0,0,0,0,1,0,0V7.716a0,0,0,0,1,0,0H7.716A7.716,7.716,0,0,1,0,0V0A0,0,0,0,1,0,0Z" transform="translate(0 64.442)"/><path class="n" d="M3.857,0H54.49a3.858,3.858,0,0,1,3.858,3.858v0A3.858,3.858,0,0,1,54.49,7.716H3.858A3.858,3.858,0,0,1,0,3.858v0A3.857,3.857,0,0,1,3.857,0Z" transform="translate(25.917 64.442)"/></g><g transform="translate(155.362 202.346)"><path class="c" d="M1694.345,1391.947c-5.044,8.779-11.388,12.168-11.388,12.168h-26.394S1698.194,1385.249,1694.345,1391.947Z" transform="translate(-1610.883 -1268.101)"/><g transform="translate(0 0)"><path class="d" d="M1715.621,1576.7a2.44,2.44,0,0,0-.435,2.61.021.021,0,0,0,.007.013c.63,1.74,2.71,3.682,5.125,5.622.308.25.583.476.822.686.063.055.126.11.185.166s.1.087.142.128c2.253,2.077,1.405,2.552,5.452,6.766,4.615,4.8,7.792,4.888,8.7,4.45.765-.373-.789-2.919-2.51-5.781-.083-.138-.166-.278-.251-.418-.229-.38-.457-.766-.685-1.149-2.017-3.445-1.5-5.061-1.021-10.188.389-4.166,6.481-23.275,6.481-23.275l-8.844-1.523s-2.663,15.216-5.6,17.559c-1.569,1.249-3.325,1.265-4.833,2.19-.107.064-.212.13-.314.2A11.6,11.6,0,0,0,1715.621,1576.7Z" transform="translate(-1652.43 -1384.929)"/><path class="p" d="M1715.621,1625.3a2.44,2.44,0,0,0-.435,2.61.02.02,0,0,0,.007.013c.771,1.738,2.8,3.671,5.133,5.6.305.253.574.486.814.7.063.055.126.11.185.166s.1.087.142.128c2.253,2.077,1.405,2.552,5.452,6.766,4.615,4.8,7.792,4.888,8.7,4.45.765-.373-.789-2.919-2.51-5.782a19.664,19.664,0,0,1-8.226-6.062c-2.779-3.546-4.632-8.1-6.524-10.741-.107.064-.212.13-.314.2A11.6,11.6,0,0,0,1715.621,1625.3Z" transform="translate(-1652.43 -1433.532)"/><path class="d" d="M1946.566,1564.553c.546,2.73,4.437,2.275,8.785,1.212s3.314.2,9.5-.485,8.062-2.992,8.25-3.912c.169-.816-2.888-1.1-6.167-1.482-.412-.046-.827-.1-1.241-.148-3.7-.465-6.414-2.853-9.777-4.816-3.185-1.858-7.939-9.431-7.939-9.431l-8.485.672s4.453,6.763,6.175,9.7c1.013,1.729.959,4.016.833,5.782A10.889,10.889,0,0,0,1946.566,1564.553Z" transform="translate(-1812.064 -1378.304)"/><path class="p" d="M1972.439,1601.189c4.348-1.062,3.315.2,9.5-.485s8.062-2.992,8.25-3.912c.169-.816-2.888-1.1-6.167-1.482l-.031.063a17.439,17.439,0,0,1-8.861,2.755c-4.2.1-8.644-1.1-11.543-1.054a10.9,10.9,0,0,0,.065,2.9C1964.2,1602.707,1968.092,1602.252,1972.439,1601.189Z" transform="translate(-1829.152 -1413.729)"/><path class="c" d="M1779.79,1390.2l-7.932,21.345-10.356,27.87a16.782,16.782,0,0,1-5.5-.5,23.876,23.876,0,0,1-5.321-2.59s2.876-29.925,8.24-47.1c1.375-4.409,2.916-7.976,4.616-9.983C1771.85,1369.413,1779.79,1390.2,1779.79,1390.2Z" transform="translate(-1677.805 -1258.213)"/><path class="m" d="M1634.7,1295.867c-5.2-1.676-20.019.476-34.907,3.391l-3.117-5.142-32.159-2.512s-10.612,23.534-4.8,38.529a5.437,5.437,0,0,0,5.443,3.664s.468,0,.47,0,19.141-.011,25.356-.011c15.994,0,33.847-10.994,36.157-11.456,3.78-.756,5.292,6.8,9.073,14.744s35.536,35.158,35.536,35.158,4.881.048,6.9-.708a6.792,6.792,0,0,0,2.961-1.869S1646.418,1299.647,1634.7,1295.867Z" transform="translate(-1540.78 -1197.774)"/><path class="q" d="M1553.385,969.56c-4.12-2.164-10.388-2.456-11.406-2.593-12.187-1.638-19.521,16.07-19.953,21.436-.795,9.89-6.027,11.4-13.391,17.592-14.766,12.419-10.436,26.85-2.362,32.213,4.845,3.218,13.383,0,13.383,0,.121.084,23.353-12.987,34.8-19.293C1571.629,1016.474,1563.883,975.073,1553.385,969.56Z" transform="translate(-1498.755 -966.861)"/><path class="d" d="M1619.481,1084.127c.05.033-5.635,1.974-9.436.29-3.576-1.58-6.285-7.464-6.232-7.467,1.627-.075,3.413-1.5,4.788-10.83l.693.249,11.647,4.191s-.844,3.737-1.39,7.3C1619.091,1080.842,1618.844,1083.7,1619.481,1084.127Z" transform="translate(-1573.374 -1037.441)"/><path class="r" d="M1634.431,1071.171s-.844,3.737-1.39,7.3c-6.69-1.2-9.315-7.87-10.257-11.486Z" transform="translate(-1586.864 -1038.052)"/><path class="d" d="M1633.294,1025.341s-15.936-2.139-14.451-12.042.428-16.849,10.665-15.9,11.643,5.021,11.951,8.448S1637.478,1025.642,1633.294,1025.341Z" transform="translate(-1583.992 -988.513)"/><path class="q" d="M1629.627,998.262s-10.2,8.791-17.14,9.5-9.566-1.518-9.566-1.518a27.1,27.1,0,0,0,6.551-8.876,4.878,4.878,0,0,1,4.022-2.876C1618.449,994.063,1627.842,993.868,1629.627,998.262Z" transform="translate(-1572.74 -986.358)"/><path class="q" d="M1673.278,1000.642s3.413,3.3,4.487,5.747c1.037,2.361,1.348,8.01.522,10.254,0,0,5.317-10.339,2.307-15.362C1677.4,995.955,1673.278,1000.642,1673.278,1000.642Z" transform="translate(-1622.768 -989.526)"/><path class="a" d="M1599.244,1133.328c-.481,32.257-.132,25.517-3.66,28.578-.851.737-3.241,1.176-6.387,1.384-9.891.656-27.278-.973-27.94-2.8-2.281-6.325-.671-8.29-2.574-17.973-.2-1.03-.444-2.144-.732-3.359-1.587-6.651-3.132-8.913,2.5-19.6,5.106-9.679,10.411-17.534,10.887-17.25,13.472,8,14.558,1.275,14.558,1.275S1599.48,1117.594,1599.244,1133.328Z" transform="translate(-1539.719 -1063.168)"/><path class="m" d="M1771.857,1442.611l-10.356,27.87a16.782,16.782,0,0,1-5.5-.5,23.872,23.872,0,0,1-5.321-2.59s2.876-29.925,8.24-47.1Z" transform="translate(-1677.805 -1289.275)"/><path class="a" d="M1658.284,1106.734s13.862,2.35,15.49,8.318,11.207,41.054,11.207,41.054-7.047,1.266-10.3-1.989-11.327-30.2-11.327-30.2Z" transform="translate(-1612.106 -1066.32)"/><path class="s" d="M1594.615,1229.2c-9.891.656-27.279-.973-27.94-2.8-2.281-6.324-.671-8.29-2.574-17.973l4.771-13.434s-.789,14.96,3.623,18.894,18.063,7.6,20.207,10.883A12.032,12.032,0,0,1,1594.615,1229.2Z" transform="translate(-1545.136 -1129.074)"/><path class="d" d="M1630.486,1287.887s9.759-2.173,11.333-1.307,5.423,4.02,5.9,5.117-3.506-.833-4.8-1.181c-.84-.225-3.05.543-4.145.908-4.605,1.535-7.428.745-7.428.745Z" transform="translate(-1592.34 -1194.057)"/><path class="a" d="M1530.076,1102.3s-13.1.807-17.639,7.133c-6.385,8.906-19.051,46.859-11.792,51.92,8.175,5.7,37.206,1.492,37.206,1.492s.966-4.516-.378-6.7-23.188-5.713-24.2-6.721,12.6-19.659,12.6-22.683S1530.076,1102.3,1530.076,1102.3Z" transform="translate(-1498.465 -1063.169)"/><path class="d" d="M1671.344,1296.482a18.892,18.892,0,0,0,2.715,2.952,2,2,0,0,0,1.1.237l-1.378-2.48Z" transform="translate(-1621.393 -1201.243)"/><path class="d" d="M1669.709,1287.082l5.945,2.887a1.059,1.059,0,0,1-.985.38,14.186,14.186,0,0,1-2.578-.708Z" transform="translate(-1620.23 -1194.558)"/></g><g transform="translate(38.146 67.056)"><path class="j" d="M1680.74,1234.117h47.024l14.146-35.176h-46.951Z" transform="translate(-1666.22 -1198.941)"/><path class="i" d="M1692.581,1315.94h-62.095v1.371h61.544Z" transform="translate(-1630.486 -1282.134)"/><path class="a" d="M1791.161,1254.3a1.629,1.629,0,0,0-1.6-2.239,3.209,3.209,0,0,0-2.881,2.239,1.63,1.63,0,0,0,1.6,2.239A3.208,3.208,0,0,0,1791.161,1254.3Z" transform="translate(-1741.487 -1236.714)"/></g></g><g transform="translate(60.513 305.086)"><g transform="translate(333.08 9.296)"><path class="c" d="M2330.3,1455.453h.143a1.5,1.5,0,0,0,1.5-1.534l-2.274-98.525-6.7-.781,5.71,99.313A1.62,1.62,0,0,0,2330.3,1455.453Z" transform="translate(-2322.973 -1354.613)"/></g><g transform="translate(0)"><g transform="translate(9.547 9.296)"><path class="c" d="M1204.879,1455.453h-.143a1.5,1.5,0,0,1-1.5-1.534l2.273-98.525,6.7-.781-5.71,99.313A1.62,1.62,0,0,1,1204.879,1455.453Z" transform="translate(-1203.237 -1354.613)"/></g><path class="c" d="M5.944,0H344.8a5.945,5.945,0,0,1,5.945,5.945v0a5.945,5.945,0,0,1-5.945,5.945H5.944A5.944,5.944,0,0,1,0,5.945v0A5.944,5.944,0,0,1,5.944,0Z"/></g></g><g transform="translate(350.454 30.878)"><path class="e" d="M2173.673,407.612a34.054,34.054,0,0,0,7.789,21.727,28.51,28.51,0,0,1,6.546,18.12V457a11.065,11.065,0,0,0,11.032,11.032h17.653A11.064,11.064,0,0,0,2227.725,457v-9.559a28.622,28.622,0,0,1,6.58-18.145,34.2,34.2,0,0,0-32.576-55.328q-.662.12-1.314.266A34.2,34.2,0,0,0,2173.673,407.612Z" transform="translate(-2173.673 -373.417)"/><path class="m" d="M2275.313,700.878l-.038.294-.485,3.718-.128.979v.008l-.13.986-.483,3.717-.128.979,0,.008-.128.988-.071.544c-.246,1.886-2.4,3.326-4.98,3.326h-5.81a6.628,6.628,0,0,1-1.748-.231h0a5.637,5.637,0,0,1-1.353-.563l-.032-.018a4.5,4.5,0,0,1-.88-.671,3.186,3.186,0,0,1-.963-1.809l-.206-1.441-.131-.908v-.023l-.128-.888-.493-3.446-.129-.9,0-.02-.128-.893-.534-3.733Z" transform="translate(-2232.356 -606.263)"/><g transform="translate(24.38 94.615)"><path class="o" d="M2274.323,700.878h-3.283c-5.3,1.532-10.553,3.046-12.989,3.733l.127.893,0,.02.129.9c1.972-.546,6.706-1.9,18.279-5.257l.038-.294Z" transform="translate(-2258.051 -700.878)"/><path class="o" d="M2260.787,720.637v.023l.131.908c2.281-.641,6.985-1.99,16.784-4.83l.129-.986v-.008l.128-.979c-6.192,1.793-13.686,3.957-17.3,4.985Z" transform="translate(-2259.906 -710.752)"/><path class="o" d="M2266.485,739.492l.032.018a5.631,5.631,0,0,0,1.353.563h0c2.688-.77,6.676-1.922,12.609-3.64l.128-.988,0-.008.128-.979c-5.3,1.534-11.377,3.29-15.132,4.364A4.5,4.5,0,0,0,2266.485,739.492Z" transform="translate(-2263.422 -724.755)"/></g><g transform="translate(19.89 50.74)"><rect class="a" width="1.547" height="44.369" transform="matrix(0.986, -0.167, 0.167, 0.986, 0, 0.258)"/></g><g transform="translate(38.877 51.42)"><rect class="a" width="43.772" height="1.547" transform="translate(0 43.057) rotate(-79.632)"/></g><g transform="translate(20.64 50.012)"><path class="a" d="M2262.743,555.3a3.027,3.027,0,0,1-.668-.082.959.959,0,0,1-.758-.829c-.177-.966.582-2.739,1.646-4.242a4.166,4.166,0,0,0-2.075-2.008c-1.148-.348-2.91.712-4.137,2.066a9.162,9.162,0,0,1,.6.983c.628,1.187,1.08,2.7.462,3.406-.229.26-.7.5-1.625.146a1.926,1.926,0,0,1-1.143-2.693,6.188,6.188,0,0,1,1.1-1.877c-.95-1.24-2.22-2.181-3.471-2.023a3.831,3.831,0,0,0-1.719.648,5.179,5.179,0,0,1,.429,4.393,1.394,1.394,0,0,1-1.861.617c-.59-.21-.9-1.022-.784-2.069a4.778,4.778,0,0,1,1.6-3.061,3.967,3.967,0,0,0-.889-1,2.947,2.947,0,0,0-4.013.2l-.336-.326a3.464,3.464,0,0,1,4.636-.244,4.4,4.4,0,0,1,.975,1.082,4.3,4.3,0,0,1,1.9-.708c1.4-.176,2.8.813,3.841,2.13,1.336-1.451,3.237-2.522,4.564-2.122a4.472,4.472,0,0,1,2.233,2.059,8.028,8.028,0,0,1,1.8-1.77c.977-.647,1.613-.5,1.974-.26a3.523,3.523,0,0,1,.949.949,5.231,5.231,0,0,1,.908-.585,2.565,2.565,0,0,1,2.926.116l-.3.357a2.2,2.2,0,0,0-2.415-.055,4.9,4.9,0,0,0-.871.563,4.95,4.95,0,0,1,.468,3.986.99.99,0,0,1-1.324.52,1.759,1.759,0,0,1-1.3-1.6,4.215,4.215,0,0,1,1.55-2.989,3.07,3.07,0,0,0-.844-.868c-.442-.291-1.038-.019-1.459.26a7.909,7.909,0,0,0-1.81,1.819,6.093,6.093,0,0,1,.8,3.9A1.514,1.514,0,0,1,2262.743,555.3Zm.464-4.694c-.927,1.351-1.579,2.88-1.429,3.7a.5.5,0,0,0,.4.457c.917.208,1.48-.06,1.675-.8A5.457,5.457,0,0,0,2263.206,550.606Zm-6.768-.034a5.553,5.553,0,0,0-.945,1.626,1.459,1.459,0,0,0,.865,2.1c.374.141.87.253,1.108-.017.368-.418.152-1.6-.525-2.878A8.925,8.925,0,0,0,2256.438,550.572Zm-5.852-1.483a4.306,4.306,0,0,0-1.379,2.7c-.087.8.109,1.447.477,1.578a.947.947,0,0,0,1.293-.4A4.684,4.684,0,0,0,2250.586,549.089Zm17.273.3a3.751,3.751,0,0,0-1.323,2.553,1.319,1.319,0,0,0,.994,1.19.529.529,0,0,0,.745-.29A4.487,4.487,0,0,0,2267.859,549.387Z" transform="translate(-2245.108 -546.506)"/></g></g><g transform="translate(294.827 269.91)"><g transform="translate(0 0)"><path class="q" d="M2042.318,1235.875h-47.024l-14.146-35.176H2028.1Z" transform="translate(-1981.149 -1200.699)"/><path class="q" d="M2028.2,1317.7h62.1v1.37H2028.75Z" transform="translate(-2014.605 -1283.894)"/></g><path class="a" d="M2070.967,1256.06a1.629,1.629,0,0,1,1.6-2.239,3.209,3.209,0,0,1,2.881,2.239,1.629,1.629,0,0,1-1.6,2.239A3.208,3.208,0,0,1,2070.967,1256.06Z" transform="translate(-2044.951 -1238.472)"/></g><path class="t" d="M1587.505,1700.034v.34a.962.962,0,0,1-.921.991L1077.343,1703a.963.963,0,0,1-.921-.991v-.34a.962.962,0,0,1,.921-.991l509.242-1.631A.962.962,0,0,1,1587.505,1700.034Z" transform="translate(-1010.481 -1284.052)"/><g transform="translate(471.316 306.994)"><g transform="translate(8.989 42.892)"><path class="m" d="M537.493,1357.11s7.516-8.769.463-14.338c0,0-5.151-3.119-9.352-2.866,0,0,5.952,9.98,4.026,10.973s-5.83-11.6-5.83-11.6-11.723-1.137-15.494.676c0,0,10.022,8.2,7.911,8.689s-12.935-7.561-12.935-7.561-10.911,1.857-10.329,8.513,4.341,8.711,5.994,8.534,11.318-3.867,11.528-2.513-5.608,5.779-9.682,5.986c0,0,7.692,8.483,12.8,6.035s5.549-6.329,8.736-7.785,5.907-1.452,4.591.033-7.083,2.927-8.906,6.151-3.457,5.4,1.832,4.6,13.887-4.666,14.264-9.1Z" transform="translate(-495.931 -1338.929)"/><g transform="translate(5.383 10.797)"><path class="m" d="M531.349,1410.014s29.634-1.142,36.179,7.333a21.431,21.431,0,0,0,5.9,8.282l.694,1.892s-5.135-5.415-6.973-5.742C567.15,1421.779,570.024,1411.279,531.349,1410.014Z" transform="translate(-531.349 -1409.962)"/><path class="m" d="M798.86,1508.871a18.609,18.609,0,0,1,6.8,13.109l-1.154.1s-2.032-8.691-5.7-12.09S798.86,1508.871,798.86,1508.871Z" transform="translate(-756.781 -1493.204)"/></g></g><g transform="translate(68.97 19.085)"><path class="n" d="M898.406,1213.263s-11.956-6.7-6.376-15.782c0,0,4.464-5.58,9.246-7.014,0,0-2.551,13.55,0,13.869s1.754-15.3,1.754-15.3,12.594-6.057,17.535-5.579c0,0-7.811,13.231-5.26,12.912s11.318-13.709,11.318-13.709,12.912-2.391,14.985,5.261-1.275,11.478-3.188,11.956-14.187.319-13.869,1.913,8.608,4.145,13.231,2.71c0,0-5.1,12.594-11.8,11.956s-8.768-4.782-12.912-5.1-7.174.8-5.1,1.913,9.086.366,12.434,3.212,6.058,4.6-.159,5.875-17.376.478-19.608-4.3Z" transform="translate(-890.546 -1182.302)"/><g transform="translate(1.545 8.006)"><path class="n" d="M961.773,1234.972s-33.477,10.84-37.3,22.955a25.433,25.433,0,0,1-3.188,11.637v2.391s3.507-8.13,5.42-9.246C926.7,1262.71,919.209,1252.188,961.773,1234.972Z" transform="translate(-918.156 -1234.972)"/><path class="n" d="M903.84,1454.256a22.079,22.079,0,0,0-2.22,17.383l1.328-.357s-1.289-10.511,1.412-15.8S903.84,1454.256,903.84,1454.256Z" transform="translate(-900.713 -1419.663)"/></g></g><g transform="translate(0)"><path class="n" d="M494.6,1097.553s15.76-8.826,8.406-20.8c0,0-5.884-7.355-12.188-9.246,0,0,3.362,17.862,0,18.282s-2.311-20.173-2.311-20.173-16.6-7.985-23.115-7.355c0,0,10.3,17.441,6.934,17.021s-14.92-18.072-14.92-18.072-17.021-3.152-19.753,6.934,1.681,15.13,4.2,15.76,18.7.421,18.282,2.522S448.79,1087.887,442.7,1086c0,0,6.724,16.6,15.55,15.76s11.557-6.3,17.021-6.724,9.456,1.051,6.724,2.522-11.978.482-16.391,4.234-7.985,6.063.21,7.744,22.9.63,25.847-5.674Z" transform="translate(-436.791 -1056.741)"/><g transform="translate(8.637 10.553)"><path class="n" d="M493.614,1126.168s44.128,14.289,49.172,30.26a33.524,33.524,0,0,0,4.2,15.34v3.152s-4.623-10.717-7.144-12.188C539.844,1162.732,549.72,1148.863,493.614,1126.168Z" transform="translate(-493.614 -1126.168)"/><path class="n" d="M833,1415.225s6.805,10.334,2.926,22.914l-1.751-.47s1.7-13.856-1.861-20.824S833,1415.225,833,1415.225Z" transform="translate(-779.63 -1369.625)"/></g></g><path class="q" d="M648.377,1584.16a30.872,30.872,0,0,1-30.872-30.872h61.743A30.872,30.872,0,0,1,648.377,1584.16Z" transform="translate(-590.037 -1477.814)"/><path class="m" d="M614.7,1745.481h62.6a3.809,3.809,0,0,0-3.809-3.809H618.509a3.809,3.809,0,0,0-3.809,3.809Z" transform="translate(-587.658 -1637.564)"/><rect class="c" width="63.461" height="0.947" transform="translate(90.227 76.421) rotate(180)"/></g></g></svg>