<svg xmlns="http://www.w3.org/2000/svg" width="403.147" height="232.437" viewBox="0 0 403.147 232.437"><defs><style>.a{fill:#fff3e6;}.b{fill:#ff949c;}.c{fill:#d86713;}.d{fill:#f1a34f;}.e{fill:#c95c12;}.f{fill:#ed975d;}.g{fill:#ffdca2;}.h{fill:#f99746;}.i{fill:#fcc469;}.j{fill:#ffb27d;}.k{fill:#2c3a64;}.l{fill:#f27c1a;}.m{fill:#f23039;}.n{fill:#fe676e;}</style></defs><g transform="translate(-679.971 -317.664)"><g transform="translate(679.971 317.664)"><path class="a" d="M693.4,564.2s-52.946-112.75,51.4-112.75c55.135,0,32.422-30.935,69.906-66.736,37.035-35.371,132.433-87.243,162.064-21.1.315.7,17.01,26.882,17.345,27.712,15.6,38.645-22.6,45.732-22.55,51.8.034,4.565,34.633,12.3,64.017,8.328,80.07-10.82,34.757,112.433,34.757,112.433Z" transform="translate(-679.971 -331.765)"/><g transform="translate(22.031 215.357)"><rect class="b" width="75.638" height="17.079" transform="translate(23.322 0.001)"/><rect class="b" width="75.637" height="17.08"/></g><g transform="translate(133.38 153.711)"><g transform="translate(0 0)"><g transform="translate(0 0)"><rect class="c" width="56.321" height="78.722" transform="translate(73.686 78.722) rotate(180)"/><rect class="d" width="56.321" height="78.722" transform="translate(56.321 78.722) rotate(180)"/></g></g><path class="e" d="M1692.823,1103.168l17.366,11.82v-11.82Z" transform="translate(-1636.503 -1103.168)"/></g><g transform="translate(134.742 11.735)"><path class="f" d="M1740.751,490.859c-.871-.132-3.494,2.293-3.494,2.293h0c-5.6.647-13.794,2.135-16.742,2.7-2.091.4-7.712-1.514-13.2-3.714-6.531-2.618-12.877-5.638-12.877-5.638-3.624-.185-7.739,6.427-.39,10.63,1.122.642,5.337,1.737,10.191,2.737h0c6.7,1.38,14.606,2.577,17.3,2.156,3.128-.489,11.981-3.728,17.247-6.208h0l.014-.007.059-.028a6.445,6.445,0,0,1,2.466-.671c.986.059,3.184-1.747,3.251-2.229S1741.622,490.991,1740.751,490.859Z" transform="translate(-1635.541 -460.02)"/><path class="g" d="M1684.645,708.246l-3.084.627s-14.116-15.86-16.294-22.534c-1.166-3.567-8.618-5.108-16.406-7.121-6.778-1.753-13.812-3.864-17.17-7.984-7.219-8.852,4.534-19.729,4.534-19.729s12.5,7.427,23.278,15.1c7.536,5.362,14.233,10.844,15.242,14C1677.195,688.26,1682.392,702.824,1684.645,708.246Z" transform="translate(-1586.276 -594.12)"/><path class="h" d="M1896.441,955.108h1.735c.581-.091,1.01-.259,1.606-.337a1.609,1.609,0,0,1,1.4.337.2.2,0,0,1,.016.018h7.371c.185-.265.007-.878-.167-1.329a1.049,1.049,0,0,0-.69-.631,7.951,7.951,0,0,1-3.734-1.705c-.794-.717-3.834-2.638-3.834-2.638l-.016,0c-.067,0-.385.1-1.767,1.266-.715.6-1.933-.851-1.933-.851a1.734,1.734,0,0,0-.4.542,1.831,1.831,0,0,0-.158,1.131,7.335,7.335,0,0,1-.528,2.733c-.172.506-.317.865-.317.865S1894.949,954.921,1896.441,955.108Z" transform="translate(-1802.2 -835.75)"/><path class="i" d="M1659.5,666.6l-10.641,12.614c-6.778-1.753-13.812-3.864-17.17-7.984-7.219-8.852,4.534-19.729,4.534-19.729S1648.721,658.93,1659.5,666.6Z" transform="translate(-1586.276 -594.12)"/><path class="g" d="M1589.957,676.157s-.858,2.705-2.254,6.775c-1.766,5.146-4.4,12.474-7.25,19.269-.627,1.493-1.265,2.961-1.907,4.374-2.373,5.229-4.8,9.712-6.94,11.99-3.843,4.1-13.184,30.423-13.184,30.423l-2.328-.644s-3.245-22.481,8.251-35.274a.812.812,0,0,0,.233-.477.006.006,0,0,0,0,0c.153-1.894.7-10.373,1.891-18.966.293-2.108.624-4.222,1-6.247.023-.13.048-.258.071-.386,1.749-9.364,3.424-13.53,5.585-15.624l15.894,4.524Z" transform="translate(-1526.401 -610.262)"/><path class="h" d="M1550.42,1075.783h1.735c.581-.092,1.01-.26,1.606-.338a1.609,1.609,0,0,1,1.4.338l.016.017h7.371c.186-.265.007-.878-.167-1.33a1.048,1.048,0,0,0-.69-.631,7.95,7.95,0,0,1-3.733-1.705c-.794-.717-3.834-2.638-3.834-2.638l-.016,0c-.067,0-.385.1-1.767,1.266-.715.6-1.933-.851-1.933-.851a1.738,1.738,0,0,0-.4.542,1.833,1.833,0,0,0-.158,1.132,7.337,7.337,0,0,1-.528,2.733c-.172.506-.317.864-.317.864S1548.928,1075.6,1550.42,1075.783Z" transform="translate(-1520.987 -933.824)"/><path class="j" d="M1432.231,529.212s-2.659,6.506-5.725,12.838c-2.579,5.324-5.445,10.525-7.262,11.635-2.562,1.565-9.62,5.98-14.2,9.273,0,0-3.573-.027-4.128.657s-1.836,3.757-1.462,4.068,3.214.167,3.9-.54a6.438,6.438,0,0,1,2.275-1.164l.062-.019.014,0h0c5.564-1.711,14.29-5.277,16.932-7.021,2.274-1.5,7.317-7.712,11.339-13.24h0c2.916-4.007,5.3-7.655,5.693-8.884C1442.28,528.754,1434.786,526.636,1432.231,529.212Z" transform="translate(-1399.388 -493.892)"/><path class="k" d="M1583.082,354.933a13.379,13.379,0,0,0-.953-1.231,2.987,2.987,0,0,0,1.174-.176c.933-.386,1.359-3.349,1.219-4.228s-1.436-3.421-3.036-3.674-3.251,1.522-3.251,1.522c.3-1.282,3-2.021,3-2.021-5.573,1.027-5.288,4.744-5.25,5.087-5.1-1.817-8.1,7.789-8.1,7.789l13.213,7.787s.035-2.122,1.3-1.985C1584.365,364.015,1586,359.187,1583.082,354.933Z" transform="translate(-1536.331 -345.124)"/><path class="j" d="M1611.68,459.253c-3.032,1.429-7.055-.629-7.033-.651.26-.26.169-1.038-.07-2.056a14.98,14.98,0,0,0-1.841-4.244c-.216-.368-.433-.736-.693-1.126l.347-.13,5.89-2.361s.953,1.711,1.949,3.27c.845,1.3,1.732,2.469,2.122,2.426C1612.373,454.359,1616.271,457.044,1611.68,459.253Z" transform="translate(-1564.087 -429.289)"/><path class="f" d="M1611.288,451.807c-.152,2.1-.866,5.89-3.7,7.276a14.978,14.978,0,0,0-1.84-4.244Z" transform="translate(-1567.095 -431.826)"/><path class="j" d="M1575.547,416.473s7.669-3.023,5.713-7.769-2.283-8.333-7.262-6.6-5.178,3.93-4.91,5.673S1573.5,417.137,1575.547,416.473Z" transform="translate(-1537.243 -391.069)"/><path class="k" d="M1574.307,405.473c3.541-.5,4.574-1.931,4.574-1.931a9.808,9.808,0,0,1-5.177-4.129s-3.98-1.342-6.929.9a1.989,1.989,0,0,0-.373.832c-.676-.222-1.692-.164-2.279,1.747-.881,2.87,2.253,6,2.253,6,.76-.215-.1-2.772-.217-4.137a6.46,6.46,0,0,1,.746-2.9c.375.487,4.111,5.181,8.671,5.369a19.239,19.239,0,0,1-4.6-2.471A5.886,5.886,0,0,0,1574.307,405.473Z" transform="translate(-1533.143 -388.921)"/><path class="h" d="M1586.969,490.31c-.065-.229-.135-.467-.208-.71a17.99,17.99,0,0,0,1.935-5.8,11.641,11.641,0,0,0-.368-5.674s-5.319-2.821-7.668-3.18a.134.134,0,0,0-.029-.009c-.028,0-.06-.007-.094-.009-2.371-.327-7.5.721-7.5.721a3.714,3.714,0,0,1-1.8,4.393c-2.793,1.757-5.777-.45-5.777-.45-.09.06-.186.127-.284.2h0s-7.35,4.85-8.01,5.958-3.487,6.6-3.487,6.6.9,4.606,10.825,4.992a22.94,22.94,0,0,1,1.644,5.521c.789,6.253-.127,11.186.792,14.836s17.486,1.569,20.486.867,2.325-3.906,2.556-7.018C1590.266,507.629,1587.945,493.759,1586.969,490.31Z" transform="translate(-1524.776 -450.566)"/><path class="l" d="M1719.063,516.365a18,18,0,0,1-1.949,5.825c-.26-1.148-1.321-5.349-3.032-7.255A14.678,14.678,0,0,1,1719.063,516.365Z" transform="translate(-1655.142 -483.131)"/></g><path class="m" d="M1224.763,1431.284v9.853l-23.323-9.853Z" transform="translate(-1103.773 -1216.119)"/><rect class="n" width="77.131" height="101.308" transform="translate(243.454 131.124)"/><rect class="b" width="77.132" height="101.308" transform="translate(219.671 131.125)"/><path class="m" d="M2288.452,982.575v15.149l-23.781-15.149Z" transform="translate(-1967.867 -851.45)"/></g></g></svg>