<svg xmlns="http://www.w3.org/2000/svg" width="387.2" height="493.498" viewBox="0 0 387.2 493.498"><defs><style>.a{fill:#fcedf0;}.b{fill:#a8d29f;}.c{fill:#ffb27d;}.d{fill:#fd8f52;}.e{fill:#f9ddbf;}.f{fill:#f2d1b6;}.g{fill:#f2ccaa;}.h{fill:#fe676e;}.i{fill:#ff949c;}.j{fill:#c73866;}.k{fill:#fff;}.l{fill:#ed7d2b;}.m{fill:#e8945b;}.n{fill:#efc59e;}.o{fill:#233862;}.p{fill:#82b378;}.q{fill:#f99746;}.r{fill:#e86531;opacity:0.5;}.s{fill:#afcdfb;}</style></defs><g transform="translate(507.593 -593.734)"><g transform="translate(-1091 466.493)"><path class="a" d="M953.2,620.74,682.43,616.657s-145.891-148.218-43.6-225.041c96.75-72.663-101.184-103.023-45.288-197.088a111.585,111.585,0,0,1,8.175-11.912A122.473,122.473,0,0,1,625.6,159.665c68.6-50.456,194.493-42.958,266.236,29.061,52.148,52.351-63.07,40.694-10.883,106.354,50.979,64.138-14.516,103.327,23.658,137.371C941.05,464.941,1000.217,518.987,953.2,620.74Z" transform="translate(0 0)"/><path class="b" d="M1096.913,1423.163s-15.435-67.386-31.895-75.728-42.746-5.979-43.676-5.9,9.211,13.78,25.709,22.536,29.859,5.769,30.961,7.929c10.427,20.439,15.179,51.5,15.179,51.5Z" transform="translate(-313.471 -869.037)"/><g transform="translate(758.16 277.811)"><path class="c" d="M1209.882,1145.951s-1.863,8.25-1.331,10.513,6.32,5.855,8.483,5.19.3-11.977-3.426-13.84Z" transform="translate(-1205.626 -1007.094)"/><path class="d" d="M1241.847,658.809a12.4,12.4,0,0,0-9.8-1.049c-16.654-1.956-21.512,17.466-21.286,24.149s.988,13.86-6.449,22.542c-21.483,25.077,23.509,26.183,23.509,26.183.381-20.036,24.4-12.725,23.346-10.7C1281.952,727.328,1254.224,665.23,1241.847,658.809Z" transform="translate(-1198.496 -657.21)"/><path class="e" d="M1226.014,827.817s-9.077,1.625-11.184,9.475c-2.078,7.743-5.505,35.026-5.771,47.174-.236,10.791-.266,36.93-.266,36.93a11.609,11.609,0,0,0,8.483,0l10.505-53.5Z" transform="translate(-1205.867 -779.346)"/><path class="f" d="M1239.007,981.06s1.809-29.808.3-44.464c-1.206-11.724,13.476,22.532,12.474,28.76S1239.007,981.06,1239.007,981.06Z" transform="translate(-1227.497 -855.483)"/><path class="e" d="M1289.827,846.527a112.717,112.717,0,0,1,0,13.092c-.28,4.734-5.069,11.074-5.748,12.643-1.7,3.934-3.627,4.574-3.627,4.574l-14.872,3.645-5.229,1.28-16.491-4.925s-7.511-20.965-4.5-32.767a90.73,90.73,0,0,1,7.624-20s11.18-2.686,30.978-1.117Z" transform="translate(-1227.241 -775.513)"/><path class="g" d="M1337.054,947.5c-.28,4.734-.716,9.142-1.395,10.711-1.7,3.934-3.627,4.574-3.627,4.574l-14.872,3.645-6.46-1.9s21.563-3.268,19.174-21.82Z" transform="translate(-1278.822 -861.595)"/><path class="h" d="M1238.746,1024.561s-8.167,25.42-8.691,34.074,15.611,122.945,16.26,126.933c.612,3.759,5.28,6.155,5.28,6.155a7.063,7.063,0,0,0,5.21.4c4.251-1.2,5.595-2.638,5.595-2.638s6.356-81.511,2.423-110.628a461.177,461.177,0,0,1-3.98-54.3Z" transform="translate(-1221.08 -920.193)"/><path class="i" d="M1302.052,1021.894s12.457,16.714,13.619,28.013,1.822,50.987,4.3,62,13.589,37,13.589,71.359a24.329,24.329,0,0,0-5.124,1.281c-.933.336-2.469-.25-3.683.029-2.406.552-3.866,2.289-4.964.078-6.146-12.374-27.208-57.341-28.212-65.625-.71-5.863-6.892-44.665-20.375-67.433-3.237-5.466,1.987-27.2,1.987-27.2Z" transform="translate(-1249.786 -918.283)"/><path class="j" d="M1254.918,1010.75s3.279,2.593,9.792,2.725c7.78.156,27.057-1.983,27.057-1.983a15.951,15.951,0,0,1,.822,4.92s-23.544,5.939-37.185.867A8.621,8.621,0,0,1,1254.918,1010.75Z" transform="translate(-1238.556 -910.305)"/><g transform="translate(20.737 101.838)"><path class="k" d="M1275.035,1023.688a4.049,4.049,0,1,1,3.55-4.018A3.81,3.81,0,0,1,1275.035,1023.688Zm0-6.859a2.887,2.887,0,1,0,2.373,2.841A2.642,2.642,0,0,0,1275.035,1016.83Z" transform="translate(-1271.485 -1015.653)"/></g><rect class="l" width="31.984" height="43.781" transform="translate(25.683 93.029) rotate(-41.048)"/><path class="c" d="M1342.914,1027.206s-9.44.832-9.413,2.929,2.994,5.755,4.392,5.755c3.194,0,6.7-4.783,6.7-4.783Z" transform="translate(-1295.145 -922.086)"/><path class="e" d="M1363.54,824.194s11.8.691,16.323,11.686,13.1,29.456,13.1,32.562-4.793,12.679-30.539,18.184c0,0-2.663-2.8-2.5-5.016,0,0,16.071-13.8,16.028-15.417-.082-3.052-2.635-7.08-16.744-21.194C1355.375,841.16,1363.54,824.194,1363.54,824.194Z" transform="translate(-1312.816 -776.752)"/><path class="c" d="M1344.956,1026.46a21.468,21.468,0,0,0-3.538-.488c-1.4-.009-3.075-.283-3.086.19-.019.873,2.794,1.173,2.794,1.572S1344.956,1026.46,1344.956,1026.46Z" transform="translate(-1298.603 -921.141)"/><g transform="translate(18.25 8.554)"><path class="c" d="M1311.154,786.84c-.879-1.65-3.394-10.039-3.376-14.394l-.747.125-12.555,2.106s.286,3.347.294,6.5c0,.026,0,.052,0,.078a38.343,38.343,0,0,0,.513,7.481c.248,1.531-.275,12.521,4.981,11.732C1302.141,800.186,1311.733,787.929,1311.154,786.84Z" transform="translate(-1285.457 -748.26)"/><path class="m" d="M1294.476,774.991s.286,3.347.294,6.5c7.025-.168,10.739-5.6,12.26-8.607Z" transform="translate(-1285.457 -748.575)"/><path class="c" d="M1272.268,723.444s16.622.274,16.634-10.08,2.164-17.292-8.448-17.9-12.679,3.336-13.523,6.791S1267.945,723.106,1272.268,723.444Z" transform="translate(-1265.595 -693.101)"/><path class="d" d="M1288.383,689.423s4.551,12.147,11.536,13.944,10.014-.075,10.014-.075a19.779,19.779,0,0,1-6.469-11.685S1291.816,683.642,1288.383,689.423Z" transform="translate(-1281.095 -687.319)"/><path class="d" d="M1271.147,693.207s-3.375,1.262-4.764,3.723a16.736,16.736,0,0,0-2.247,9.505s-3.429-8.257.425-12.927C1268.646,688.555,1271.147,693.207,1271.147,693.207Z" transform="translate(-1262.73 -690.116)"/></g><path class="n" d="M1309.777,829.791s10.828-11.89,11.265-16.679a12.26,12.26,0,0,1,6.037,3.016s-2.432,7.814-5.592,9.976a20.01,20.01,0,0,1-4.092-1.086,34.906,34.906,0,0,0,2.039,3.046S1314.445,830.858,1309.777,829.791Z" transform="translate(-1278.161 -768.818)"/><path class="n" d="M1283.175,815.4a51.107,51.107,0,0,0,4,16.03s-5.125-1.008-7.743-4.639a7.459,7.459,0,0,1,1.525-2.384,2.617,2.617,0,0,0-2.509.273s-.565-4.245.029-5.534S1281.708,816.427,1283.175,815.4Z" transform="translate(-1255.56 -770.453)"/><circle class="o" cx="0.818" cy="0.818" r="0.818" transform="translate(30.626 61.57) rotate(-76.101)"/><path class="o" d="M1292.975,910.473a.818.818,0,1,0-.822.813A.818.818,0,0,0,1292.975,910.473Z" transform="translate(-1264.962 -837.93)"/><circle class="o" cx="0.818" cy="0.818" r="0.818" transform="matrix(0.237, -0.972, 0.972, 0.237, 25.319, 86.727)"/></g><path class="b" d="M1145.227,1550.586s-18.089-30.523-23.3-32.04-16.973-3.609-25.111,3.269-11.341,20.73-11.341,20.73,7.014,1.533,21.253-4.772,15.209-15.626,16.671-14.973,19.639,28.156,19.639,28.156Z" transform="translate(-359.426 -994.924)"/><path class="p" d="M1471.706,1482.1s.56-42.5,11.01-45.464,25.665,8.759,28.4,23.706c0,0,2.445,9.924,5.763,13.47,0,0-7.571,3.271-15.505,1.647s-14.588-10.615-15.007-18.332-3.323-18.1-4.687-17.461-3.31,4.492-4.7,10.726-2.524,31.72-2.524,31.72Z" transform="translate(-635.924 -937.05)"/><g transform="translate(597.592 164.29)"><g transform="translate(39.241 10.574)"><path class="q" d="M983.146,397.348c-15.946-11.91-39.191-14.076-49.434-14.427-3.246-.112-5.182-.046-5.182-.046l-.611-.272c4.634-13.892.059-28.358-11.1-33.386a19.859,19.859,0,0,0-7.424-1.736,24.7,24.7,0,0,0-14.167,4.126c-.259.164-.515.331-.768.509a33.41,33.41,0,0,0-10.019,10.941,5.4,5.4,0,0,0-5.979,2,5.546,5.546,0,0,0-.522.913l-8.624,19.136a15.463,15.463,0,0,0,7.722,20.393l4.565,2.054,21.9,9.871a17.358,17.358,0,0,0,22.894-8.667l2.36-5.238q2.156-1.3,4.444-2.826c24.86-16.616,50.5,1.27,50.5,1.27a4.37,4.37,0,0,0,.41-1.818A4.511,4.511,0,0,0,983.146,397.348Zm-57.428-15.736-.955-.43a5.31,5.31,0,0,0-2.9-6.3l-8.923-4.024a4.482,4.482,0,0,0-2.238-5.91l-1.234-.558a4.479,4.479,0,0,0-5.91,2.245l-8.926-4.027c-.1-.043-.2-.086-.3-.125-.118-.043-.24-.082-.358-.118a5.317,5.317,0,0,0-5.75,1.9,3.969,3.969,0,0,0-.236.338l-.391-.177-.925-.417a30.491,30.491,0,0,1,10.882-11.017,24.349,24.349,0,0,1,5.034-2.2,19.448,19.448,0,0,1,8.936-.679,17.1,17.1,0,0,1,4.313,1.3C925.793,355.9,929.84,368.954,925.718,381.612Z" transform="translate(-842.544 -335.52)"/><path class="r" d="M1080.047,512.966q2.159-1.3,4.444-2.825c24.86-16.617,50.5,1.27,50.5,1.27a4.341,4.341,0,0,0,.409-1.819c-3.588-2.545-17.072-11.062-34.218-8.9C1081.095,503.225,1077.385,505.88,1080.047,512.966Z" transform="translate(-993.828 -444.963)"/><path class="r" d="M877.045,405.5l4.565,2.057c-6.809-4.029,2.337-19.742,7.729-30.139s12.83-5.3,12.83-5.3a6.049,6.049,0,0,1,5.591-3.163,4.224,4.224,0,0,1,2.941-4l-1.235-.559a4.478,4.478,0,0,0-5.91,2.243l-8.926-4.024c-2.425-1.09-5.447-1.053-6.833,1.129l-1.124.275a30.5,30.5,0,0,1,10.885-11.018,21.1,21.1,0,0,1,13.97-2.879,9.842,9.842,0,0,1-2.124-2.634,24.717,24.717,0,0,0-14.168,4.127,33.193,33.193,0,0,0-10.786,11.45,5.383,5.383,0,0,0-6.5,2.914l-8.624,19.133A15.461,15.461,0,0,0,877.045,405.5Z" transform="translate(-842.547 -335.52)"/><path class="c" d="M834.157,330.6c-4.644,1.773-14.894,6.469-21.475,3.844-2.619-1.045-5.247-3.287-7.7-4.3-8.75-3.6-26.485-8.048-26.485-8.048l4.6-16.682s22.81,12.358,25.28,12.841c3.833.749,8.045-.835,10.515.358,6.8,3.281,13.028,4.2,16.3,2.8,2.492-1.065,3.35-.729,3.35-.729S838.8,328.9,834.157,330.6Z" transform="translate(-778.493 -305.419)"/><path class="s" d="M1269.421,552.275c.034-1,1.949-4.019,1.949-4.019s1.7,3.145,1.668,4.144a1.809,1.809,0,1,1-3.616-.125Z" transform="translate(-1129.943 -479.263)"/><path class="s" d="M1267.991,593.777c.034-1,1.949-4.019,1.949-4.019s1.7,3.145,1.668,4.143a1.809,1.809,0,1,1-3.617-.125Z" transform="translate(-1128.919 -508.974)"/><path class="c" d="M893,345.29a19.271,19.271,0,0,1,9.843-2.691c2.905.07,12.4.9,12.282,1.48-.636,3.239-5.91.237-7.254,3.45S893,345.29,893,345.29Z" transform="translate(-860.47 -332.032)"/></g><path class="h" d="M689.061,297.986a42,42,0,0,1-9.786,7.4l-38.9-12.973A125.65,125.65,0,0,1,664.26,268.2c5.5,2.773,28.66,15.2,31.075,16.5l.2.108S695.8,290.946,689.061,297.986Z" transform="translate(-640.375 -268.2)"/></g><g transform="translate(763.037 532.957)"><path class="q" d="M1308.609,1572.768l-.14,4.666v.064l-.056.479-1.177,9.2-7.2,56.536c-.672,4.89-4.371,8.5-8.713,8.5h-39.5c-4.958,0-9.3-3.931-10.394-9.46l-10.254-55.8-1.653-8.981-.084-.447v-.16c0-2.525,1.793-4.6,4.006-4.6Z" transform="translate(-1225.523 -1567.793)"/><path class="r" d="M1308.625,1591.1l-1.177,9.2a196.479,196.479,0,0,0-39.362-4.187,172.232,172.232,0,0,0-36.7,3.963l-1.653-8.981Z" transform="translate(-1225.735 -1580.919)"/><path class="q" d="M1301.167,1568.2h-84.121a1.525,1.525,0,0,1-1.365-1.827l1.375-9.791a1.452,1.452,0,0,1,1.365-1.328h81.621a1.459,1.459,0,0,1,1.371,1.373l1.125,9.791A1.519,1.519,0,0,1,1301.167,1568.2Z" transform="translate(-1215.662 -1555.258)"/></g></g></g></svg>