<svg xmlns="http://www.w3.org/2000/svg" width="35.536" height="35.536" viewBox="0 0 35.536 35.536"><defs><style>.a{fill:#fff;}</style></defs><g transform="translate(30.798 7.107)"><path class="a" d="M446.1,102.4a2.369,2.369,0,1,0,2.369,2.369A2.371,2.371,0,0,0,446.1,102.4Zm0,3.554a1.185,1.185,0,1,1,1.185-1.185A1.186,1.186,0,0,1,446.1,105.954Z" transform="translate(-443.734 -102.4)"/></g><g transform="translate(0 26.652)"><path class="a" d="M2.369,384a2.369,2.369,0,1,0,2.369,2.369A2.371,2.371,0,0,0,2.369,384Zm0,3.554a1.185,1.185,0,1,1,1.185-1.185A1.186,1.186,0,0,1,2.369,387.554Z" transform="translate(0 -384)"/></g><g transform="translate(26.06 5.33)"><path class="a" d="M381.422,79.318l-5.11-2.467a.592.592,0,1,0-.515,1.067l5.11,2.467a.592.592,0,0,0,.515-1.067Z" transform="translate(-375.463 -76.792)"/></g><g transform="translate(24.283 30.798)"><path class="a" d="M352.236,443.733a2.369,2.369,0,1,0,2.369,2.369A2.371,2.371,0,0,0,352.236,443.733Zm0,3.554a1.185,1.185,0,1,1,1.185-1.185A1.186,1.186,0,0,1,352.236,447.287Z" transform="translate(-349.867 -443.733)"/></g><g transform="translate(19.545 29.021)"><path class="a" d="M287.555,420.65l-5.11-2.467a.592.592,0,0,0-.515,1.067l5.11,2.467a.592.592,0,0,0,.515-1.067Z" transform="translate(-281.596 -418.124)"/></g><g transform="translate(15.399 15.991)"><path class="a" d="M224.236,230.4a2.369,2.369,0,1,0,2.369,2.369A2.371,2.371,0,0,0,224.236,230.4Zm0,3.554a1.185,1.185,0,1,1,1.185-1.185A1.186,1.186,0,0,1,224.236,233.954Z" transform="translate(-221.867 -230.4)"/></g><g transform="translate(11.845 13.623)"><path class="a" d="M175.546,199.455l-3.925-3.059a.593.593,0,1,0-.728.935l3.925,3.059a.593.593,0,1,0,.729-.935Z" transform="translate(-170.664 -196.272)"/></g><g transform="translate(21.914 15.399)"><path class="a" d="M322.248,221.867a6.515,6.515,0,1,0,6.515,6.515A6.523,6.523,0,0,0,322.248,221.867Zm0,11.845a5.33,5.33,0,1,1,5.33-5.33A5.336,5.336,0,0,1,322.248,233.712Z" transform="translate(-315.733 -221.867)"/></g><g transform="translate(26.06 17.768)"><path class="a" d="M377.836,256a2.369,2.369,0,1,0,2.369,2.369A2.371,2.371,0,0,0,377.836,256Zm0,3.554a1.185,1.185,0,1,1,1.185-1.185A1.186,1.186,0,0,1,377.836,259.554Z" transform="translate(-375.467 -256)"/></g><g transform="translate(24.876 23.691)"><path class="a" d="M363.672,341.333h-3.436a1.813,1.813,0,0,0-1.835,1.786v1.561a.593.593,0,0,0,.3.513,6.482,6.482,0,0,0,6.516,0,.592.592,0,0,0,.3-.512v-1.561A1.813,1.813,0,0,0,363.672,341.333Zm.651,2.994a5.371,5.371,0,0,1-4.738,0v-1.208a.629.629,0,0,1,.651-.6h3.436a.629.629,0,0,1,.651.6v1.208Z" transform="translate(-358.4 -341.333)"/></g><g transform="translate(7.7 22.506)"><path class="a" d="M117.448,324.267a6.515,6.515,0,1,0,6.515,6.515A6.523,6.523,0,0,0,117.448,324.267Zm0,11.845a5.33,5.33,0,1,1,5.33-5.331A5.336,5.336,0,0,1,117.448,336.112Z" transform="translate(-110.933 -324.267)"/></g><g transform="translate(11.846 24.876)"><path class="a" d="M173.036,358.4a2.369,2.369,0,1,0,2.369,2.369A2.371,2.371,0,0,0,173.036,358.4Zm0,3.554a1.185,1.185,0,1,1,1.185-1.185A1.186,1.186,0,0,1,173.036,361.954Z" transform="translate(-170.667 -358.4)"/></g><g transform="translate(10.661 30.798)"><path class="a" d="M158.872,443.733h-3.436a1.813,1.813,0,0,0-1.835,1.786v1.561a.593.593,0,0,0,.3.513,6.482,6.482,0,0,0,6.516,0,.592.592,0,0,0,.3-.512v-1.561A1.813,1.813,0,0,0,158.872,443.733Zm.651,2.994a5.37,5.37,0,0,1-4.738,0v-1.208a.629.629,0,0,1,.651-.6h3.436a.629.629,0,0,1,.651.6v1.208Z" transform="translate(-153.6 -443.733)"/></g><g transform="translate(0 7.7)"><path class="a" d="M6.515,110.933a6.515,6.515,0,1,0,6.515,6.515A6.523,6.523,0,0,0,6.515,110.933Zm0,11.845a5.33,5.33,0,1,1,5.33-5.33A5.336,5.336,0,0,1,6.515,122.778Z" transform="translate(0 -110.933)"/></g><g transform="translate(4.146 10.069)"><path class="a" d="M62.1,145.067a2.369,2.369,0,1,0,2.369,2.369A2.371,2.371,0,0,0,62.1,145.067Zm0,3.554a1.185,1.185,0,1,1,1.185-1.185A1.186,1.186,0,0,1,62.1,148.621Z" transform="translate(-59.734 -145.067)"/></g><g transform="translate(2.961 15.991)"><path class="a" d="M47.939,230.4H44.5a1.813,1.813,0,0,0-1.835,1.786v1.561a.593.593,0,0,0,.3.513,6.482,6.482,0,0,0,6.516,0,.592.592,0,0,0,.3-.512v-1.561A1.813,1.813,0,0,0,47.939,230.4Zm.651,2.994a5.371,5.371,0,0,1-4.738,0v-1.208a.629.629,0,0,1,.651-.6h3.436a.629.629,0,0,1,.651.6v1.208Z" transform="translate(-42.667 -230.4)"/></g><g transform="translate(14.215)"><path class="a" d="M211.315,0a6.515,6.515,0,1,0,6.515,6.515A6.523,6.523,0,0,0,211.315,0Zm0,11.846a5.33,5.33,0,1,1,5.33-5.33A5.336,5.336,0,0,1,211.315,11.846Z" transform="translate(-204.8)"/></g><g transform="translate(18.361 2.369)"><path class="a" d="M266.9,34.133a2.369,2.369,0,1,0,2.369,2.369A2.371,2.371,0,0,0,266.9,34.133Zm0,3.554a1.185,1.185,0,1,1,1.185-1.185A1.186,1.186,0,0,1,266.9,37.687Z" transform="translate(-264.534 -34.133)"/></g><g transform="translate(17.176 8.292)"><path class="a" d="M252.739,119.467H249.3a1.813,1.813,0,0,0-1.835,1.786v1.561a.593.593,0,0,0,.3.513,6.482,6.482,0,0,0,6.516,0,.592.592,0,0,0,.3-.512v-1.561A1.813,1.813,0,0,0,252.739,119.467Zm.651,2.994a5.37,5.37,0,0,1-4.738,0v-1.208a.629.629,0,0,1,.651-.6h3.436a.629.629,0,0,1,.651.6v1.208Z" transform="translate(-247.467 -119.467)"/></g><g transform="translate(10.111 5.923)"><path class="a" d="M150.818,85.54a.593.593,0,0,0-.835-.065l-4.1,3.512a.592.592,0,1,0,.77.9l4.1-3.512A.592.592,0,0,0,150.818,85.54Z" transform="translate(-145.671 -85.333)"/></g><g transform="translate(23.691 10.662)"><path class="a" d="M345.953,158.585l-3.554-4.738a.592.592,0,0,0-.948.71l3.554,4.738a.592.592,0,0,0,.948-.71Z" transform="translate(-341.333 -153.61)"/></g><g transform="translate(19.075 23.636)"><path class="a" d="M279.208,340.777a.592.592,0,0,0-.829-.118l-3.308,2.481a.592.592,0,1,0,.711.947l3.308-2.481A.592.592,0,0,0,279.208,340.777Z" transform="translate(-274.833 -340.54)"/></g><g transform="translate(3.554 28.429)"><path class="a" d="M55.938,409.6H51.792a.592.592,0,0,0,0,1.185h4.146a.592.592,0,0,0,0-1.185Z" transform="translate(-51.2 -409.6)"/></g><g transform="translate(4.146)"><path class="a" d="M62.1,0a2.369,2.369,0,1,0,2.369,2.369A2.372,2.372,0,0,0,62.1,0Zm0,3.554a1.185,1.185,0,1,1,1.185-1.185A1.186,1.186,0,0,1,62.1,3.554Z" transform="translate(-59.733 0)"/></g><g transform="translate(5.923 3.554)"><path class="a" d="M85.926,51.2a.592.592,0,0,0-.592.592v4.146a.592.592,0,1,0,1.185,0V51.792A.592.592,0,0,0,85.926,51.2Z" transform="translate(-85.334 -51.2)"/></g></svg>