<svg xmlns="http://www.w3.org/2000/svg" width="31.161" height="31.283" viewBox="0 0 31.161 31.283"><defs><style>.a{fill:#fff;}</style></defs><g transform="translate(-1 0)"><path class="a" d="M31.753,9.93,26.662,6.536V5.193a.917.917,0,0,0-.917-.917H23.274L17.089.154a.917.917,0,0,0-1.017,0L9.888,4.277H7.416a.917.917,0,0,0-.917.917V6.536L1.408,9.93A.916.916,0,0,0,1,10.692V26.578a.917.917,0,0,0,.917.917H13.637l2.173,3.369a.916.916,0,0,0,1.54,0l2.173-3.369H31.245a.917.917,0,0,0,.917-.917V10.692A.917.917,0,0,0,31.753,9.93ZM18.5,18.635l11.823-6.4V25.04ZM29.47,10.611l-2.808,1.521V8.739ZM16.581,2.018l3.389,2.259H13.192ZM24.829,6.11v7.015l-8.249,4.468L8.332,13.125V6.11ZM6.5,12.132,3.691,10.611,6.5,8.739Zm12.526,13.53a.917.917,0,0,0-.77.42l-1.674,2.595-1.674-2.595a.916.916,0,0,0-.77-.42H2.833V12.231l24.8,13.431Z"/></g></svg>