<svg xmlns="http://www.w3.org/2000/svg" width="571.679" height="323.444" viewBox="0 0 571.679 323.444"><defs><style>.a{fill:#fff;}.b{fill:#ff949c;}.c{fill:#c73866;}.d{fill:#fe676e;}.e{fill:#eb5159;}.f{fill:#2e3552;}.g{fill:#e5925a;}.h{fill:#ed7d2b;}.i{fill:#a01e48;}.j{fill:#f99746;}.k{fill:#fff3e6;}.l{fill:#f5e5d4;}.m{fill:#ffb27d;}.n{fill:#f4a269;}.o{fill:#fffaf4;}.p{fill:#ea4b7e;}.q{fill:#fcedf0;}.r{fill:#fd8f52;}.s{fill:#b5453c;}.t{fill:#efcbab;}.u{fill:#f2f7fe;}.v{fill:#f9eaed;}</style></defs><g transform="translate(-224.574 -209.097)"><path class="a" d="M267.823,531.929s-66.969-81.518-34.24-165.441c21.334-54.7,101.359-84.677,146.521-54.7,19.235,12.766,80.947.43,113.9-52.424,64.03-102.709,287.5-40.332,246.816,117.361-19.688,76.312,59.918,79.086,19.356,155.368Z" transform="translate(0 0)"/><g transform="translate(462.728 316.632)"><g transform="translate(66.623 117.686)"><path class="b" d="M1705.509,1398.4l-.173,0a2.35,2.35,0,0,1-2.375-2.514l9.443-94.313,8.241.736-13.56,94.82A1.534,1.534,0,0,1,1705.509,1398.4Z" transform="translate(-1702.95 -1301.567)"/></g><g transform="translate(144.98 117.686)"><path class="b" d="M2098.17,1398.4l.173,0a2.35,2.35,0,0,0,2.375-2.514l-9.443-94.313-8.24.736,13.56,94.82A1.534,1.534,0,0,0,2098.17,1398.4Z" transform="translate(-2083.035 -1301.567)"/></g><g transform="translate(0 117.686)"><path class="b" d="M1382.341,1398.4l-.173,0a2.351,2.351,0,0,1-2.376-2.514l9.444-94.313,8.24.736-13.56,94.82A1.534,1.534,0,0,1,1382.341,1398.4Z" transform="translate(-1379.781 -1301.567)"/></g><path class="c" d="M1822.3,834.679l16.763-82.781c2.152-11.208-7.136-21.456-19.194-21.181l-32.329.738a25.538,25.538,0,0,0-23.949,18.435l-24.525,84.788Z" transform="translate(-1664.999 -730.712)"/><path class="b" d="M1773.11,834.679l16.763-82.781c2.151-11.208-7.136-21.456-19.195-21.181l-32.328.738A25.538,25.538,0,0,0,1714.4,749.89l-24.525,84.788Z" transform="translate(-1625.948 -730.712)"/><path class="d" d="M7.549,0h129.7a0,0,0,0,1,0,0V7.549A7.549,7.549,0,0,1,129.7,15.1H7.549A7.549,7.549,0,0,1,0,7.549v0A7.549,7.549,0,0,1,7.549,0Z" transform="translate(20.054 103.967)"/><path class="e" d="M7.549,0H81.515a7.549,7.549,0,0,1,7.549,7.549h0A7.548,7.548,0,0,1,81.516,15.1H7.549a7.549,7.549,0,0,1,0-15.1Z" transform="translate(7.309 103.967)"/></g><path class="f" d="M1.187,0H567.431a1.187,1.187,0,0,1,1.187,1.187v0a1.187,1.187,0,0,1-1.187,1.187H1.187A1.187,1.187,0,0,1,0,1.187v0A1.187,1.187,0,0,1,1.187,0Z" transform="translate(227.635 530.166)"/><path class="c" d="M1505.707,552.289c-1.8-1.475,37.476-34.634,45.9-16.044,0,0,20.169-15.539,1.6-24.635-10.456-5.121-11.955-15.894-14.437-22.234s-15.011-23.633-29.48-11.479c0,0-7.344,1.3-11.3,6.134C1488.991,495.022,1469,568.523,1505.707,552.289Z" transform="translate(-1000.116 -210.031)"/><path class="g" d="M1544.873,707.125a129.093,129.093,0,0,1-16.405,22.471c-5.057,5.383-10.884,10.183-16.871,12.275a17.389,17.389,0,0,1-8.811.885c-1.868-.325-1.056-11.36,1.54-19.748,3.421-11.048,14.086-38.5,14.086-38.5l6.1,2.6s-8.464,34.575-7.455,34.721l8.95-22.648Z" transform="translate(-1013.89 -377.402)"/><path class="h" d="M1467.523,1065.647s-68-1.082-77.077,4.689,9.069,97.92,9.069,97.92,17.588.561,18.987-4.093c0,0-3.164-43.179-.4-50.638s1.061-17.8,1.061-17.8,34.4,5.249,45.325,2.665S1467.523,1065.647,1467.523,1065.647Z" transform="translate(-923.502 -679.902)"/><path class="c" d="M1459.091,1509.089s3.871,10.364,3.049,14.208.5,11.3-1.07,14.63-4.383,8.177-1.686,9.4c1.023.465,12.932-8.772,13.614-11.5s1.213-10.767,3.493-15.132.369-7.886-2.926-9.491-7.886-10.4-7.886-10.4Z" transform="translate(-979.354 -1025.42)"/><path class="i" d="M1311.37,1610.982s-3.73,10.416-6.837,12.822-6.9,8.957-10.256,10.487-8.624,3.419-7.355,6.1c.481,1.015,15.54,1.641,17.819,0s7.874-7.443,12.432-9.308,5.37-5.787,3.889-9.139.683-13.031.683-13.031Z" transform="translate(-843.183 -1111.232)"/><path class="j" d="M1507.7,1054.213s-80.7,12.628-86.918,19.809-30.843,100.718-30.843,100.718,7.185,4.031,13.737.3c0,0,18.748-31.7,27.031-41.647s11.46-40.714,12.824-41.025,44.792,5.245,60.79-5.343C1513.752,1080.786,1507.7,1054.213,1507.7,1054.213Z" transform="translate(-925.118 -670.889)"/><path class="k" d="M1627.484,708.028c-4.762-3.585-19.094-7.544-28.059-3.51-4.245,1.91-10.685,4.413-14.539,9.2-4.16,5.168-8.95,22.648-8.95,22.648,1.567,9.206,8.886,10.334,8.886,10.334h0c-4.286,16.207,15.908,11.973,14.6,20.961-2.277,15.683,12.4,23.919,20.391,27.574,10.464,4.785,39.873,10.814,39.9,0C1659.864,745.979,1641.176,718.337,1627.484,708.028Z" transform="translate(-1072.769 -391.938)"/><path class="l" d="M1690.281,812.849s-5.3,28.625-19.671,37.029h-13.52l14.272-17.838Z" transform="translate(-1137.193 -479.284)"/><g transform="translate(499.627 294.825)"><path class="g" d="M1564.139,640.112s-4.391-5.23-5.16-6.814.671-8.408,2.461-8.363c1.129.028,2.519,4.161,3.754,5.664s6.605,3.64,4.333,9.955C1569.271,641.265,1564.139,640.112,1564.139,640.112Z" transform="translate(-1558.767 -624.935)"/></g><g transform="translate(501.871 272.024)"><path class="m" d="M1627.329,656.672c-1.239,1.859.274,7.067,7.295,5.445,4.609-1.065,13.591-8.541,11.97-12.356-.771-1.814-5.19-6.071-7.968-17.141l-.8.382-13.518,6.446s1.465,4.4,2.55,8.616C1627.768,651.605,1627.842,655.9,1627.329,656.672Z" transform="translate(-1613.038 -608.235)"/><path class="n" d="M1624.3,640.921s1.465,4.4,2.55,8.616c7.909-2.254,10.269-10.594,10.968-15.062Z" transform="translate(-1613.038 -609.707)"/><path class="m" d="M1575.514,557.209s18.949,4.4,21.506-7.447,6.723-19.252-5.267-22.559-15.325.7-17.139,4.448S1570.651,555.76,1575.514,557.209Z" transform="translate(-1571.943 -523.574)"/><path class="c" d="M1624.029,515.956s.12,13.629,10.156,20.245c5.873,3.871,6.149,7.832,6.149,7.832s3.477-11.662,4.03-20.435C1644.364,523.6,1629.377,510.185,1624.029,515.956Z" transform="translate(-1612.819 -514.477)"/><path class="c" d="M1582.054,518.221s-5.6,1.863-8.092,3.925c-3.69,3.054-4.652,12.984-4.212,15.457,0,0-1-17.26,4.551-21.657C1580.192,511.284,1582.054,518.221,1582.054,518.221Z" transform="translate(-1569.651 -514.335)"/></g><path class="m" d="M1691.446,745.557a98.979,98.979,0,0,1-6.527,12.84c-9.043,14.951-20.1,23.984-24.095,19.774-1.1-1.165-3.893-2.857-.978-9.117,2.251-4.836,5.04-10.884,7.775-16.836,5.64-12.273,11.05-24.138,11.05-24.138C1680.394,728.08,1698.51,728.71,1691.446,745.557Z" transform="translate(-1138.358 -411.991)"/><path class="m" d="M1540.11,905.891c-.62-.371-34.715,7.91-45.274,10.487l-3.083.754v3.979s35.279,1.656,40.788-.875,10.77-8.419,10.77-8.419Z" transform="translate(-1005.941 -553.136)"/><path class="o" d="M1726.347,745.557a98.979,98.979,0,0,1-6.527,12.84c-7.367-.956-14.169-4.4-17.3-6.179,5.64-12.273,11.05-24.138,11.05-24.138C1715.294,728.08,1733.411,728.71,1726.347,745.557Z" transform="translate(-1173.259 -411.991)"/><g transform="translate(364.476 326.732)"><path class="h" d="M1190.882,968.164h37.873a3.019,3.019,0,0,0-3.019-3.019h-34.854Z" transform="translate(-1131.573 -926.915)"/><path class="h" d="M965.932,779.71H907.377l14.045,41.248h58.935Z" transform="translate(-906.515 -779.709)"/><path class="j" d="M903.195,779.706l14.045,41.248h58.935L961.75,779.706Z" transform="translate(-903.195 -779.706)"/><path class="a" d="M1056.036,866.911a3.807,3.807,0,0,0,3.512,2.854,2.2,2.2,0,0,0,2.195-2.854,3.807,3.807,0,0,0-3.512-2.853A2.2,2.2,0,0,0,1056.036,866.911Z" transform="translate(-1024.467 -846.668)"/></g><g transform="translate(642.419 434.061)"><path class="c" d="M2251.406,1301.851v2.4c0,.841.272,1.527.6,1.527h87.6c.332,0,.6-.686.6-1.527v-2.4c0-.839-.272-1.527-.6-1.527h-87.6C2251.678,1300.324,2251.406,1301.012,2251.406,1301.851Z" transform="translate(-2251.406 -1300.324)"/><path class="p" d="M2251.406,1301.851v2.4c0,.841.25,1.527.555,1.527h69.548c.3,0,.555-.686.555-1.527v-2.4c0-.839-.25-1.527-.555-1.527H2251.96C2251.656,1300.324,2251.406,1301.012,2251.406,1301.851Z" transform="translate(-2251.406 -1300.324)"/><rect class="d" width="62.194" height="90.65" transform="translate(84.366 96.105) rotate(180)"/><rect class="q" width="62.194" height="90.65" transform="translate(66.937 96.105) rotate(180)"/><g transform="translate(8.085 8.016)"><path class="d" d="M2290.623,1339.2h55.51v83.085h-55.51Zm54.91.6h-54.311v81.886h54.311Z" transform="translate(-2290.623 -1339.205)"/><g transform="translate(0.3 27.485)"><rect class="d" width="54.91" height="0.599"/></g><g transform="translate(0.3 55.506)"><rect class="d" width="54.91" height="0.599"/></g><path class="d" d="M2394.5,1358.273h10.189a.9.9,0,0,0,.9-.9h0a.9.9,0,0,0-.9-.9H2394.5a.9.9,0,0,0-.9.9h0A.9.9,0,0,0,2394.5,1358.273Z" transform="translate(-2372.371 -1352.915)"/><path class="d" d="M2394.5,1491.187h10.189a.9.9,0,0,0,.9-.9h0a.9.9,0,0,0-.9-.9H2394.5a.9.9,0,0,0-.9.9h0A.9.9,0,0,0,2394.5,1491.187Z" transform="translate(-2372.371 -1458.427)"/><path class="d" d="M2394.5,1629.741h10.189a.9.9,0,0,0,.9-.9h0a.9.9,0,0,0-.9-.9H2394.5a.9.9,0,0,0-.9.9h0A.9.9,0,0,0,2394.5,1629.741Z" transform="translate(-2372.371 -1568.417)"/></g></g><g transform="translate(590.733 239.946)"><path class="c" d="M14.406,0H27.114A14.406,14.406,0,0,1,41.521,14.406v11.47A14.406,14.406,0,0,1,27.115,40.282H14.405A14.405,14.405,0,0,1,0,25.876V14.406A14.406,14.406,0,0,1,14.406,0Z" transform="translate(0 0)"/><path class="b" d="M13.157,0H24.766A13.157,13.157,0,0,1,37.923,13.157V23.634A13.158,13.158,0,0,1,24.765,36.791H13.157A13.157,13.157,0,0,1,0,23.634V13.157A13.157,13.157,0,0,1,13.157,0Z" transform="translate(1.799 1.745)"/><g transform="translate(4.902 4.561)"><g transform="translate(14.998)"><path class="c" d="M2097.223,381.721a.86.86,0,1,1,.86.86A.86.86,0,0,1,2097.223,381.721Z" transform="translate(-2097.223 -380.861)"/><path class="c" d="M2130.469,389.226a.86.86,0,1,1,.334,1.17A.86.86,0,0,1,2130.469,389.226Z" transform="translate(-2123.529 -387.15)"/><path class="c" d="M2158.21,413.314a.86.86,0,1,1-.257,1.189A.86.86,0,0,1,2158.21,413.314Z" transform="translate(-2145.325 -406.514)"/><path class="c" d="M2170.7,449.308a.86.86,0,1,1-.86.86A.86.86,0,0,1,2170.7,449.308Z" transform="translate(-2154.87 -435.197)"/><path class="c" d="M2161.065,489.5a.86.86,0,1,1-1.216,0A.86.86,0,0,1,2161.065,489.5Z" transform="translate(-2146.738 -466.9)"/><path class="c" d="M2134.867,515.762a.86.86,0,1,1-1.216,0A.86.86,0,0,1,2134.867,515.762Z" transform="translate(-2125.941 -487.751)"/><path class="c" d="M2097.223,526.959a.86.86,0,1,1,.86.86A.86.86,0,0,1,2097.223,526.959Z" transform="translate(-2097.223 -496.157)"/></g><g transform="translate(0 1.633)"><path class="c" d="M2065.562,389.226a.86.86,0,1,0-.334,1.17A.86.86,0,0,0,2065.562,389.226Z" transform="translate(-2055.811 -388.784)"/><path class="c" d="M2037.821,413.314a.86.86,0,1,0,.256,1.189A.86.86,0,0,0,2037.821,413.314Z" transform="translate(-2034.015 -408.148)"/><path class="c" d="M2025.331,449.308a.86.86,0,1,0,.86.86A.86.86,0,0,0,2025.331,449.308Z" transform="translate(-2024.471 -436.83)"/><path class="c" d="M2034.967,489.5a.86.86,0,1,0,1.217,0A.861.861,0,0,0,2034.967,489.5Z" transform="translate(-2032.603 -468.533)"/><path class="c" d="M2061.165,515.762a.86.86,0,1,0,1.216,0A.86.86,0,0,0,2061.165,515.762Z" transform="translate(-2053.4 -489.384)"/></g></g><g transform="translate(20.529 8.787)"><path class="c" d="M2100.27,450.168a.86.86,0,1,1,.86.86A.86.86,0,0,1,2100.27,450.168Z" transform="translate(-2100.27 -439.423)"/><g transform="translate(0.743)"><rect class="c" width="0.235" height="10.745"/></g><g transform="translate(0.534 5.981)"><rect class="c" width="7.242" height="0.704" transform="translate(0 4.472) rotate(-38.135)"/></g></g></g><g transform="translate(268.324 383.845)"><g transform="translate(12.192 58.175)"><path class="d" d="M552.3,1363.589s10.194-11.893.628-19.447c0,0-6.987-4.23-12.684-3.887,0,0,8.073,13.537,5.461,14.883s-7.908-15.732-7.908-15.732-15.9-1.542-21.015.917c0,0,13.593,11.123,10.73,11.786s-17.544-10.255-17.544-10.255-14.8,2.518-14.009,11.546,5.888,11.815,8.129,11.575,15.351-5.245,15.636-3.409-7.606,7.838-13.132,8.118c0,0,10.433,11.506,17.367,8.185s7.526-8.584,11.848-10.559,8.012-1.969,6.227.044-9.607,3.97-12.079,8.343-4.689,7.321,2.484,6.242,18.835-6.329,19.347-12.34Z" transform="translate(-495.931 -1338.929)"/><g transform="translate(7.302 14.644)"><path class="d" d="M531.349,1410.032s40.193-1.549,49.07,9.946a29.068,29.068,0,0,0,8,11.233l.941,2.566s-6.965-7.344-9.457-7.788C579.907,1425.989,583.8,1411.748,531.349,1410.032Z" transform="translate(-531.349 -1409.962)"/><path class="d" d="M799.456,1509.136a25.24,25.24,0,0,1,9.227,17.781l-1.566.14s-2.755-11.788-7.735-16.4S799.456,1509.136,799.456,1509.136Z" transform="translate(-742.383 -1487.888)"/></g></g><g transform="translate(93.545 25.885)"><path class="b" d="M901.207,1224.3s-16.216-9.081-8.648-21.4c0,0,6.054-7.568,12.54-9.513,0,0-3.459,18.378,0,18.811s2.378-20.757,2.378-20.757,17.081-8.216,23.784-7.567c0,0-10.595,17.946-7.135,17.513s15.351-18.594,15.351-18.594,17.513-3.243,20.324,7.135-1.73,15.567-4.324,16.216-19.243.432-18.811,2.595,11.676,5.621,17.946,3.676c0,0-6.919,17.081-16,16.216s-11.892-6.486-17.513-6.919-9.73,1.081-6.919,2.594,12.324.5,16.865,4.356,8.216,6.239-.216,7.968-23.567.649-26.594-5.838Z" transform="translate(-890.546 -1182.302)"/><g transform="translate(2.096 10.858)"><path class="b" d="M976.2,1234.972s-45.4,14.7-50.594,31.135a34.494,34.494,0,0,1-4.324,15.784v3.243s4.757-11.027,7.351-12.541C928.633,1272.593,918.471,1258.323,976.2,1234.972Z" transform="translate(-917.042 -1234.972)"/><path class="b" d="M904.954,1454.786s-7,10.633-3.01,23.577l1.8-.484s-1.748-14.257,1.915-21.427S904.954,1454.786,904.954,1454.786Z" transform="translate(-900.713 -1407.867)"/></g></g><path class="b" d="M515.2,1112.1s21.376-11.97,11.4-28.216c0,0-7.98-9.975-16.531-12.54,0,0,4.56,24.226,0,24.8s-3.135-27.361-3.135-27.361-22.516-10.831-31.351-9.975c0,0,13.965,23.656,9.405,23.086s-20.236-24.511-20.236-24.511-23.086-4.275-26.791,9.405,2.28,20.521,5.7,21.375,25.366.57,24.8,3.42-15.39,7.41-23.656,4.845c0,0,9.12,22.516,21.091,21.376s15.676-8.55,23.086-9.12,12.825,1.425,9.12,3.42-16.246.654-22.231,5.742-10.83,8.223.285,10.5,31.066.855,35.056-7.7Z" transform="translate(-436.791 -1056.741)"/><g transform="translate(11.714 14.313)"><path class="b" d="M493.614,1126.168s59.852,19.381,66.692,41.041a45.47,45.47,0,0,0,5.7,20.806v4.275s-6.27-14.536-9.69-16.53C556.316,1175.76,569.712,1156.949,493.614,1126.168Z" transform="translate(-493.614 -1126.168)"/><path class="b" d="M833.756,1415.924s9.23,14.016,3.968,31.078l-2.375-.638s2.305-18.793-2.524-28.245S833.756,1415.924,833.756,1415.924Z" transform="translate(-761.363 -1354.076)"/></g><path class="r" d="M659.377,1595.16a41.872,41.872,0,0,1-41.872-41.872h83.743A41.872,41.872,0,0,1,659.377,1595.16Z" transform="translate(-580.25 -1450.921)"/><path class="d" d="M614.7,1746.838h84.9a5.166,5.166,0,0,0-5.166-5.166H619.866a5.166,5.166,0,0,0-5.166,5.166Z" transform="translate(-578.023 -1600.469)"/><rect class="c" width="86.073" height="1.284" transform="translate(122.376 103.651) rotate(180)"/></g><g transform="translate(360.662 367.981)"><path class="c" d="M4.64,0H199.493a4.64,4.64,0,0,1,4.64,4.64v0a4.64,4.64,0,0,1-4.64,4.64H4.64A4.64,4.64,0,0,1,0,4.64v0A4.64,4.64,0,0,1,4.64,0Z" transform="translate(0 0)"/><g transform="translate(3.815 4.64)"><path class="c" d="M905.4,1159.8l-.11-.014a2.356,2.356,0,0,1-2.079-2.62L923.233,1002.3l11.219.321-26.9,155.624A1.924,1.924,0,0,1,905.4,1159.8Z" transform="translate(-903.195 -1002.297)"/></g><g transform="translate(172.281 4.64)"><path class="c" d="M1749.42,1159.8l.11-.014a2.356,2.356,0,0,0,2.079-2.62l-20.02-154.868-11.219.321,26.9,155.624A1.923,1.923,0,0,0,1749.42,1159.8Z" transform="translate(-1720.371 -1002.297)"/></g></g><g transform="translate(681.911 385.664)"><g transform="translate(0.554 5.62)"><rect class="s" width="2.346" height="27.65" transform="translate(0 4.992) rotate(-9.125)"/><path class="t" d="M2446.042,1092.826l-.386,4.992,2.316-.372Z" transform="translate(-2445.656 -1092.826)"/></g><g transform="translate(20.608 7.974)"><rect class="s" width="2.346" height="27.65" transform="translate(5.052 4.572) rotate(10.527)"/><path class="t" d="M2569.473,1104.244l-2.042,4.572,2.306.428Z" transform="translate(-2562.379 -1104.244)"/></g><g transform="translate(17.685 0)"><rect class="s" width="2.346" height="27.65" transform="matrix(0.983, 0.183, -0.183, 0.983, 5.049, 4.572)"/><path class="t" d="M2555.287,1065.566l-2.042,4.572,2.307.429Z" transform="translate(-2548.195 -1065.566)"/></g><g transform="translate(0 21.766)"><rect class="h" width="18.478" height="26.631" transform="translate(9.239)"/><rect class="j" width="18.478" height="26.631"/></g></g><g transform="translate(659.683 516.317)"><path class="a" d="M2350.664,1706.214c-.193.4-.627,2.554-1.4,4.333v0a4.477,4.477,0,0,1-1.769,2.339c-1.93.9-5.173-.642-5.173-.642s-5.559.642-6.1.385-1.081-8.6-1.081-8.6,4.323-4.492,4.709-4.62,3.552,1.54,4.092,1.54,3.706-2.066,4.555-1.548S2350.972,1705.572,2350.664,1706.214Z" transform="translate(-2335.146 -1699.32)"/><path class="u" d="M2362.081,1701.276a15.77,15.77,0,0,1-1.235,2.375c-.27.193-2.857-3.915-2.857-3.915C2358.375,1699.607,2361.541,1701.276,2362.081,1701.276Z" transform="translate(-2353.28 -1699.644)"/><path class="u" d="M2384.6,1710.242s-3.95,3.658-3.9,4,4.272,2.781,4.427,2.7-.9-2.866-.849-3.337S2384.6,1710.242,2384.6,1710.242Z" transform="translate(-2371.313 -1707.99)"/><path class="u" d="M2402.095,1706.535c-.193.4-.627,2.554-1.4,4.333v0h0l.471-4.079-1.235-7.067C2400.782,1700.246,2402.4,1705.893,2402.095,1706.535Z" transform="translate(-2386.577 -1699.641)"/><path class="u" d="M2342.326,1730.389s-5.559.642-6.1.385-1.081-8.6-1.081-8.6,1.209,4.279,1.235,4.492,1.737-.254,1.737-.254Z" transform="translate(-2335.146 -1717.463)"/><path class="u" d="M2342.167,1722.175l.618,2.213h1.274l-.946-.929Z" transform="translate(-2340.72 -1717.463)"/></g><g transform="translate(418.716 516.317)"><path class="a" d="M1181.813,1706.214c-.193.4-.627,2.554-1.4,4.333v0a4.475,4.475,0,0,1-1.769,2.339c-1.93.9-5.173-.642-5.173-.642s-5.559.642-6.1.385-1.081-8.6-1.081-8.6,4.323-4.492,4.71-4.62,3.551,1.54,4.092,1.54,3.706-2.066,4.555-1.548S1182.122,1705.572,1181.813,1706.214Z" transform="translate(-1166.295 -1699.32)"/><path class="u" d="M1193.232,1701.276a15.768,15.768,0,0,1-1.235,2.375c-.27.193-2.857-3.915-2.857-3.915C1189.526,1699.607,1192.691,1701.276,1193.232,1701.276Z" transform="translate(-1184.43 -1699.644)"/><path class="u" d="M1215.755,1710.242s-3.95,3.658-3.9,4,4.272,2.781,4.426,2.7-.9-2.866-.849-3.337S1215.755,1710.242,1215.755,1710.242Z" transform="translate(-1202.463 -1707.99)"/><path class="u" d="M1233.245,1706.535c-.193.4-.627,2.554-1.4,4.333v0h0l.471-4.079-1.235-7.067C1231.932,1700.246,1233.553,1705.893,1233.245,1706.535Z" transform="translate(-1217.727 -1699.641)"/><path class="u" d="M1173.475,1730.389s-5.559.642-6.1.385-1.081-8.6-1.081-8.6,1.209,4.279,1.235,4.492,1.737-.254,1.737-.254Z" transform="translate(-1166.295 -1717.463)"/><path class="u" d="M1173.317,1722.175l.618,2.213h1.274l-.946-.929Z" transform="translate(-1171.87 -1717.463)"/></g><g transform="translate(676.706 420.015)"><path class="q" d="M2433.6,1239.052c-.174.417-.493,2.629-1.174,4.479v0a4.549,4.549,0,0,1-1.666,2.474c-1.909,1.021-5.289-.361-5.289-.361s-5.609.964-6.172.734-1.581-8.672-1.581-8.672,4.138-4.8,4.523-4.957,3.693,1.364,4.241,1.334,3.647-2.307,4.539-1.828S2433.879,1238.383,2433.6,1239.052Z" transform="translate(-2417.72 -1232.192)"/><path class="p" d="M2443.9,1236.2a16.045,16.045,0,0,1-1.121,2.481c-.264.211-3.121-3.815-3.121-3.815C2440.043,1234.714,2443.351,1236.231,2443.9,1236.2Z" transform="translate(-2435.135 -1234.307)"/><path class="p" d="M2468.139,1243.211s-3.806,3.937-3.734,4.281,4.495,2.584,4.646,2.489-1.076-2.86-1.05-3.341S2468.139,1243.211,2468.139,1243.211Z" transform="translate(-2454.78 -1240.939)"/><path class="p" d="M2484.828,1239.307c-.174.417-.493,2.629-1.174,4.479v0h0l.25-4.169-1.652-7.107C2483.142,1232.995,2485.105,1238.638,2484.828,1239.307Z" transform="translate(-2468.947 -1232.447)"/><path class="p" d="M2425.472,1266.89s-5.609.964-6.172.734-1.581-8.672-1.581-8.672,1.468,4.277,1.507,4.492,1.75-.356,1.75-.356Z" transform="translate(-2417.72 -1253.435)"/><path class="p" d="M2424.851,1258.558l.751,2.212,1.294-.071-1.013-.891Z" transform="translate(-2423.381 -1253.122)"/></g><g transform="translate(648.555 424.195)"><path class="v" d="M2293.488,1257.073c-.135.284-.383,1.783-.912,3.041h0a3.178,3.178,0,0,1-1.292,1.692c-1.482.712-4.1-.183-4.1-.183a38.716,38.716,0,0,1-4.788.567c-.437-.149-1.223-5.844-1.223-5.844s3.211-3.3,3.51-3.4,2.865.88,3.29.853,2.83-1.6,3.521-1.288S2293.7,1256.618,2293.488,1257.073Z" transform="translate(-2281.169 -1252.469)"/><path class="p" d="M2301.485,1255.6a10.379,10.379,0,0,1-.87,1.689c-.2.146-2.419-2.543-2.419-2.543C2298.493,1254.639,2301.059,1255.626,2301.485,1255.6Z" transform="translate(-2294.685 -1254.27)"/><path class="p" d="M2320.28,1259.9a28.08,28.08,0,0,0-2.9,2.937,17.566,17.566,0,0,0,3.6,1.629c.118-.066-.833-1.921-.813-2.246S2320.28,1259.9,2320.28,1259.9Z" transform="translate(-2309.916 -1258.366)"/><path class="p" d="M2333.231,1257.232c-.135.284-.383,1.783-.912,3.041v0h0l.195-2.821-1.279-4.785C2331.926,1252.984,2333.447,1256.777,2333.231,1257.232Z" transform="translate(-2320.913 -1252.628)"/><path class="p" d="M2287.18,1276.56a38.67,38.67,0,0,1-4.788.567c-.437-.149-1.223-5.844-1.223-5.844s1.137,2.875,1.167,3.019,1.357-.261,1.357-.261Z" transform="translate(-2281.169 -1267.404)"/><path class="p" d="M2286.7,1270.934l.582,1.487,1-.063-.786-.59Z" transform="translate(-2285.56 -1267.127)"/></g><path class="m" d="M1425.754,947.215s-11.231-3.227-14.356-2.335c-2.2.629-5.021,3.891-6.489,5.758a.825.825,0,0,0,.659,1.335c1.879-.019,4.918-.143,6.51-.978,1.5-.788,3.736.948,6.225.959,1.912.008,4.369-.006,4.369-.006Z" transform="translate(-936.859 -583.973)"/></g></svg>